<mxfile host="app.diagrams.net" agent="Mozilla/5.0 (Windows NT 10.0; Win64; x64) AppleWebKit/537.36 (KHTML, like Gecko) Chrome/134.0.0.0 Safari/537.36" version="26.1.0">
  <diagram name="Page-1" id="c4acf3e9-155e-7222-9cf6-157b1a14988f">
    <mxGraphModel dx="2206" dy="2235" grid="1" gridSize="10" guides="1" tooltips="1" connect="1" arrows="1" fold="1" page="1" pageScale="1" pageWidth="850" pageHeight="1100" background="none" math="0" shadow="0">
      <root>
        <mxCell id="0" />
        <mxCell id="1" parent="0" />
        <mxCell id="pYM4KknxGki9qGqo0QUS-39" value="User" style="swimlane;fontStyle=1;align=center;verticalAlign=top;childLayout=stackLayout;horizontal=1;startSize=26;horizontalStack=0;resizeParent=1;resizeParentMax=0;resizeLast=0;collapsible=1;marginBottom=0;whiteSpace=wrap;html=1;" parent="1" vertex="1">
          <mxGeometry x="167" y="179" width="160" height="160" as="geometry">
            <mxRectangle x="40" y="410" width="60" height="30" as="alternateBounds" />
          </mxGeometry>
        </mxCell>
        <mxCell id="pYM4KknxGki9qGqo0QUS-69" value="+ FName&amp;nbsp;: string&amp;nbsp;&lt;div&gt;+ LName&amp;nbsp;: string&lt;/div&gt;&lt;div&gt;&lt;span style=&quot;background-color: transparent; color: light-dark(rgb(0, 0, 0), rgb(255, 255, 255));&quot;&gt;+ email: string&lt;/span&gt;&lt;/div&gt;&lt;div&gt;+ phNum: string&lt;span style=&quot;background-color: transparent; color: light-dark(rgb(0, 0, 0), rgb(255, 255, 255));&quot;&gt;&lt;/span&gt;&lt;/div&gt;&lt;div&gt;&amp;nbsp;&lt;/div&gt;&lt;div&gt;&amp;nbsp;&lt;/div&gt;&lt;div&gt;&amp;nbsp;&lt;/div&gt;" style="text;strokeColor=none;fillColor=none;align=left;verticalAlign=top;spacingLeft=4;spacingRight=4;overflow=hidden;rotatable=0;points=[[0,0.5],[1,0.5]];portConstraint=eastwest;whiteSpace=wrap;html=1;" parent="pYM4KknxGki9qGqo0QUS-39" vertex="1">
          <mxGeometry y="26" width="160" height="84" as="geometry" />
        </mxCell>
        <mxCell id="pYM4KknxGki9qGqo0QUS-41" value="" style="line;strokeWidth=1;fillColor=none;align=left;verticalAlign=middle;spacingTop=-1;spacingLeft=3;spacingRight=3;rotatable=0;labelPosition=right;points=[];portConstraint=eastwest;strokeColor=inherit;" parent="pYM4KknxGki9qGqo0QUS-39" vertex="1">
          <mxGeometry y="110" width="160" height="8" as="geometry" />
        </mxCell>
        <mxCell id="pYM4KknxGki9qGqo0QUS-85" value="+ register(User): Rider&lt;div&gt;+ login(User): Volunteer&lt;/div&gt;" style="text;strokeColor=none;fillColor=none;align=left;verticalAlign=top;spacingLeft=4;spacingRight=4;overflow=hidden;rotatable=0;points=[[0,0.5],[1,0.5]];portConstraint=eastwest;whiteSpace=wrap;html=1;" parent="pYM4KknxGki9qGqo0QUS-39" vertex="1">
          <mxGeometry y="118" width="160" height="42" as="geometry" />
        </mxCell>
        <mxCell id="pYM4KknxGki9qGqo0QUS-47" value="Volunteer" style="swimlane;fontStyle=1;align=center;verticalAlign=top;childLayout=stackLayout;horizontal=1;startSize=26;horizontalStack=0;resizeParent=1;resizeParentMax=0;resizeLast=0;collapsible=1;marginBottom=0;whiteSpace=wrap;html=1;" parent="1" vertex="1">
          <mxGeometry x="70" y="400" width="120" height="130" as="geometry">
            <mxRectangle x="360" y="430" width="90" height="30" as="alternateBounds" />
          </mxGeometry>
        </mxCell>
        <mxCell id="pYM4KknxGki9qGqo0QUS-65" value="+ login_id: string&lt;div&gt;+ volJob: string&amp;nbsp;&lt;/div&gt;&lt;div&gt;&lt;br&gt;&lt;/div&gt;" style="text;strokeColor=none;fillColor=none;align=left;verticalAlign=top;spacingLeft=4;spacingRight=4;overflow=hidden;rotatable=0;points=[[0,0.5],[1,0.5]];portConstraint=eastwest;whiteSpace=wrap;html=1;" parent="pYM4KknxGki9qGqo0QUS-47" vertex="1">
          <mxGeometry y="26" width="120" height="54" as="geometry" />
        </mxCell>
        <mxCell id="pYM4KknxGki9qGqo0QUS-49" value="" style="line;strokeWidth=1;fillColor=none;align=left;verticalAlign=middle;spacingTop=-1;spacingLeft=3;spacingRight=3;rotatable=0;labelPosition=right;points=[];portConstraint=eastwest;strokeColor=inherit;" parent="pYM4KknxGki9qGqo0QUS-47" vertex="1">
          <mxGeometry y="80" width="120" height="8" as="geometry" />
        </mxCell>
        <mxCell id="pYM4KknxGki9qGqo0QUS-50" value="+ accessData(): void&lt;div&gt;+ modData():void&lt;/div&gt;" style="text;strokeColor=none;fillColor=none;align=left;verticalAlign=top;spacingLeft=4;spacingRight=4;overflow=hidden;rotatable=0;points=[[0,0.5],[1,0.5]];portConstraint=eastwest;whiteSpace=wrap;html=1;" parent="pYM4KknxGki9qGqo0QUS-47" vertex="1">
          <mxGeometry y="88" width="120" height="42" as="geometry" />
        </mxCell>
        <mxCell id="pYM4KknxGki9qGqo0QUS-51" value="Rider" style="swimlane;fontStyle=1;align=center;verticalAlign=top;childLayout=stackLayout;horizontal=1;startSize=26;horizontalStack=0;resizeParent=1;resizeParentMax=0;resizeLast=0;collapsible=1;marginBottom=0;whiteSpace=wrap;html=1;" parent="1" vertex="1">
          <mxGeometry x="222" y="400" width="190" height="300" as="geometry">
            <mxRectangle x="360" y="120" width="70" height="30" as="alternateBounds" />
          </mxGeometry>
        </mxCell>
        <mxCell id="pYM4KknxGki9qGqo0QUS-97" value="+ regStatus: bool&lt;div&gt;+ event1: Event&lt;/div&gt;&lt;div&gt;+ event2: Event&lt;/div&gt;&lt;div&gt;+ event3: Event&lt;/div&gt;&lt;div&gt;+ event4: Event&lt;/div&gt;&lt;div&gt;+ city:string&lt;/div&gt;&lt;div&gt;&lt;span style=&quot;background-color: transparent; color: light-dark(rgb(0, 0, 0), rgb(255, 255, 255));&quot;&gt;+ zip:string&lt;/span&gt;&lt;/div&gt;&lt;div&gt;&lt;span style=&quot;background-color: transparent; color: light-dark(rgb(0, 0, 0), rgb(255, 255, 255));&quot;&gt;+ emerConName: string&lt;/span&gt;&lt;/div&gt;&lt;div&gt;&lt;span style=&quot;background-color: transparent; color: light-dark(rgb(0, 0, 0), rgb(255, 255, 255));&quot;&gt;+ emerConPhNum: string&lt;/span&gt;&lt;/div&gt;&lt;div&gt;+ bibNum:string&lt;/div&gt;&lt;div&gt;&lt;br&gt;&lt;/div&gt;" style="text;strokeColor=none;fillColor=none;align=left;verticalAlign=top;spacingLeft=4;spacingRight=4;overflow=hidden;rotatable=0;points=[[0,0.5],[1,0.5]];portConstraint=eastwest;whiteSpace=wrap;html=1;" parent="pYM4KknxGki9qGqo0QUS-51" vertex="1">
          <mxGeometry y="26" width="190" height="174" as="geometry" />
        </mxCell>
        <mxCell id="pYM4KknxGki9qGqo0QUS-53" value="" style="line;strokeWidth=1;fillColor=none;align=left;verticalAlign=middle;spacingTop=-1;spacingLeft=3;spacingRight=3;rotatable=0;labelPosition=right;points=[];portConstraint=eastwest;strokeColor=inherit;" parent="pYM4KknxGki9qGqo0QUS-51" vertex="1">
          <mxGeometry y="200" width="190" height="8" as="geometry" />
        </mxCell>
        <mxCell id="d70GMvGcP12yl__OMH9Z-12" value="&lt;div&gt;+ Rider()&lt;/div&gt;+ getEvent(Rider):Event&lt;div&gt;+ setBibNum(string): string&lt;/div&gt;&lt;div&gt;+getBibNum(Rider):string&lt;/div&gt;&lt;div&gt;+getRider(bibNum:string):Rider&lt;/div&gt;" style="text;strokeColor=none;fillColor=none;align=left;verticalAlign=top;spacingLeft=4;spacingRight=4;overflow=hidden;rotatable=0;points=[[0,0.5],[1,0.5]];portConstraint=eastwest;whiteSpace=wrap;html=1;" parent="pYM4KknxGki9qGqo0QUS-51" vertex="1">
          <mxGeometry y="208" width="190" height="92" as="geometry" />
        </mxCell>
        <mxCell id="pYM4KknxGki9qGqo0QUS-106" value="Register" style="swimlane;fontStyle=1;align=center;verticalAlign=top;childLayout=stackLayout;horizontal=1;startSize=26;horizontalStack=0;resizeParent=1;resizeParentMax=0;resizeLast=0;collapsible=1;marginBottom=0;whiteSpace=wrap;html=1;" parent="1" vertex="1">
          <mxGeometry x="30" y="680" width="160" height="180" as="geometry" />
        </mxCell>
        <mxCell id="pYM4KknxGki9qGqo0QUS-107" value="rider*: Rider&lt;div&gt;event*:Event&lt;/div&gt;&lt;div&gt;form:RegForm&lt;/div&gt;" style="text;strokeColor=none;fillColor=none;align=left;verticalAlign=top;spacingLeft=4;spacingRight=4;overflow=hidden;rotatable=0;points=[[0,0.5],[1,0.5]];portConstraint=eastwest;whiteSpace=wrap;html=1;" parent="pYM4KknxGki9qGqo0QUS-106" vertex="1">
          <mxGeometry y="26" width="160" height="54" as="geometry" />
        </mxCell>
        <mxCell id="pYM4KknxGki9qGqo0QUS-108" value="" style="line;strokeWidth=1;fillColor=none;align=left;verticalAlign=middle;spacingTop=-1;spacingLeft=3;spacingRight=3;rotatable=0;labelPosition=right;points=[];portConstraint=eastwest;strokeColor=inherit;" parent="pYM4KknxGki9qGqo0QUS-106" vertex="1">
          <mxGeometry y="80" width="160" height="8" as="geometry" />
        </mxCell>
        <mxCell id="pYM4KknxGki9qGqo0QUS-109" value="+getForm();RegForm&lt;div&gt;+Event()&lt;/div&gt;&lt;div&gt;+submit(Form):RegForm&lt;/div&gt;&lt;div&gt;+Rider ():rider&lt;/div&gt;&lt;div&gt;+RegForm():RegForm&lt;/div&gt;&lt;div&gt;&lt;br&gt;&lt;/div&gt;" style="text;strokeColor=none;fillColor=none;align=left;verticalAlign=top;spacingLeft=4;spacingRight=4;overflow=hidden;rotatable=0;points=[[0,0.5],[1,0.5]];portConstraint=eastwest;whiteSpace=wrap;html=1;" parent="pYM4KknxGki9qGqo0QUS-106" vertex="1">
          <mxGeometry y="88" width="160" height="92" as="geometry" />
        </mxCell>
        <mxCell id="pYM4KknxGki9qGqo0QUS-114" value="Event" style="swimlane;fontStyle=1;align=center;verticalAlign=top;childLayout=stackLayout;horizontal=1;startSize=26;horizontalStack=0;resizeParent=1;resizeParentMax=0;resizeLast=0;collapsible=1;marginBottom=0;whiteSpace=wrap;html=1;" parent="1" vertex="1">
          <mxGeometry x="237" y="800" width="160" height="160" as="geometry" />
        </mxCell>
        <mxCell id="pYM4KknxGki9qGqo0QUS-115" value="+eventname:string&lt;div&gt;+eventType:Event&lt;/div&gt;&lt;div&gt;&lt;br&gt;&lt;/div&gt;" style="text;strokeColor=none;fillColor=none;align=left;verticalAlign=top;spacingLeft=4;spacingRight=4;overflow=hidden;rotatable=0;points=[[0,0.5],[1,0.5]];portConstraint=eastwest;whiteSpace=wrap;html=1;" parent="pYM4KknxGki9qGqo0QUS-114" vertex="1">
          <mxGeometry y="26" width="160" height="64" as="geometry" />
        </mxCell>
        <mxCell id="pYM4KknxGki9qGqo0QUS-116" value="" style="line;strokeWidth=1;fillColor=none;align=left;verticalAlign=middle;spacingTop=-1;spacingLeft=3;spacingRight=3;rotatable=0;labelPosition=right;points=[];portConstraint=eastwest;strokeColor=inherit;" parent="pYM4KknxGki9qGqo0QUS-114" vertex="1">
          <mxGeometry y="90" width="160" height="8" as="geometry" />
        </mxCell>
        <mxCell id="pYM4KknxGki9qGqo0QUS-117" value="+Event (Rider *r)" style="text;strokeColor=none;fillColor=none;align=left;verticalAlign=top;spacingLeft=4;spacingRight=4;overflow=hidden;rotatable=0;points=[[0,0.5],[1,0.5]];portConstraint=eastwest;whiteSpace=wrap;html=1;" parent="pYM4KknxGki9qGqo0QUS-114" vertex="1">
          <mxGeometry y="98" width="160" height="62" as="geometry" />
        </mxCell>
        <mxCell id="pYM4KknxGki9qGqo0QUS-122" value="MainPage" style="swimlane;fontStyle=1;align=center;verticalAlign=top;childLayout=stackLayout;horizontal=1;startSize=26;horizontalStack=0;resizeParent=1;resizeParentMax=0;resizeLast=0;collapsible=1;marginBottom=0;whiteSpace=wrap;html=1;" parent="1" vertex="1">
          <mxGeometry x="311" y="-1070" width="160" height="140" as="geometry" />
        </mxCell>
        <mxCell id="pYM4KknxGki9qGqo0QUS-123" value="+state:State&lt;div&gt;+eventsButton:Button&lt;/div&gt;&lt;div&gt;+registerButton:Button&lt;/div&gt;&lt;div&gt;+loginButton:Button&lt;/div&gt;" style="text;strokeColor=none;fillColor=none;align=left;verticalAlign=top;spacingLeft=4;spacingRight=4;overflow=hidden;rotatable=0;points=[[0,0.5],[1,0.5]];portConstraint=eastwest;whiteSpace=wrap;html=1;" parent="pYM4KknxGki9qGqo0QUS-122" vertex="1">
          <mxGeometry y="26" width="160" height="74" as="geometry" />
        </mxCell>
        <mxCell id="pYM4KknxGki9qGqo0QUS-124" value="" style="line;strokeWidth=1;fillColor=none;align=left;verticalAlign=middle;spacingTop=-1;spacingLeft=3;spacingRight=3;rotatable=0;labelPosition=right;points=[];portConstraint=eastwest;strokeColor=inherit;" parent="pYM4KknxGki9qGqo0QUS-122" vertex="1">
          <mxGeometry y="100" width="160" height="8" as="geometry" />
        </mxCell>
        <mxCell id="pYM4KknxGki9qGqo0QUS-125" value="+setState(page:Page):void" style="text;strokeColor=none;fillColor=none;align=left;verticalAlign=top;spacingLeft=4;spacingRight=4;overflow=hidden;rotatable=0;points=[[0,0.5],[1,0.5]];portConstraint=eastwest;whiteSpace=wrap;html=1;" parent="pYM4KknxGki9qGqo0QUS-122" vertex="1">
          <mxGeometry y="108" width="160" height="32" as="geometry" />
        </mxCell>
        <mxCell id="pYM4KknxGki9qGqo0QUS-126" value="RegistrationChoicePage" style="swimlane;fontStyle=1;align=center;verticalAlign=top;childLayout=stackLayout;horizontal=1;startSize=26;horizontalStack=0;resizeParent=1;resizeParentMax=0;resizeLast=0;collapsible=1;marginBottom=0;whiteSpace=wrap;html=1;" parent="1" vertex="1">
          <mxGeometry x="1171" y="-1070" width="190" height="220" as="geometry" />
        </mxCell>
        <mxCell id="pYM4KknxGki9qGqo0QUS-127" value="&lt;div&gt;+state:State&lt;/div&gt;&lt;div&gt;&lt;br&gt;&lt;/div&gt;&lt;div&gt;+enduranceButton:Button&lt;/div&gt;&lt;div&gt;+10KadultButton:Button&lt;/div&gt;&lt;div&gt;+10KchildButton:Button&lt;/div&gt;&lt;div&gt;+gravelButton:Button&lt;/div&gt;&lt;div&gt;+mbButton:Button&lt;/div&gt;&lt;div&gt;+runButton:Button&lt;/div&gt;" style="text;strokeColor=none;fillColor=none;align=left;verticalAlign=top;spacingLeft=4;spacingRight=4;overflow=hidden;rotatable=0;points=[[0,0.5],[1,0.5]];portConstraint=eastwest;whiteSpace=wrap;html=1;" parent="pYM4KknxGki9qGqo0QUS-126" vertex="1">
          <mxGeometry y="26" width="190" height="134" as="geometry" />
        </mxCell>
        <mxCell id="pYM4KknxGki9qGqo0QUS-128" value="" style="line;strokeWidth=1;fillColor=none;align=left;verticalAlign=middle;spacingTop=-1;spacingLeft=3;spacingRight=3;rotatable=0;labelPosition=right;points=[];portConstraint=eastwest;strokeColor=inherit;" parent="pYM4KknxGki9qGqo0QUS-126" vertex="1">
          <mxGeometry y="160" width="190" height="8" as="geometry" />
        </mxCell>
        <mxCell id="pYM4KknxGki9qGqo0QUS-129" value="getState(page:Page):State&lt;div&gt;passState(button:Button):State&lt;/div&gt;" style="text;strokeColor=none;fillColor=none;align=left;verticalAlign=top;spacingLeft=4;spacingRight=4;overflow=hidden;rotatable=0;points=[[0,0.5],[1,0.5]];portConstraint=eastwest;whiteSpace=wrap;html=1;" parent="pYM4KknxGki9qGqo0QUS-126" vertex="1">
          <mxGeometry y="168" width="190" height="52" as="geometry" />
        </mxCell>
        <mxCell id="pYM4KknxGki9qGqo0QUS-130" value="EventsInfoMapsPage" style="swimlane;fontStyle=1;align=center;verticalAlign=top;childLayout=stackLayout;horizontal=1;startSize=26;horizontalStack=0;resizeParent=1;resizeParentMax=0;resizeLast=0;collapsible=1;marginBottom=0;whiteSpace=wrap;html=1;" parent="1" vertex="1">
          <mxGeometry x="311" y="-880" width="160" height="164" as="geometry" />
        </mxCell>
        <mxCell id="pYM4KknxGki9qGqo0QUS-131" value="&lt;div&gt;+scheduleButton:Button&lt;/div&gt;&lt;div&gt;+localinfoButton:Button&lt;/div&gt;&lt;div&gt;&lt;div&gt;+vendorsButton:Button&lt;/div&gt;&lt;/div&gt;&lt;div&gt;&lt;div&gt;+parkingButton:Button&lt;/div&gt;&lt;/div&gt;&lt;div&gt;+routemapsButton:Button&lt;/div&gt;&lt;div&gt;+mapsList:ScrollList&lt;/div&gt;&lt;div&gt;&lt;br&gt;&lt;/div&gt;" style="text;strokeColor=none;fillColor=none;align=left;verticalAlign=top;spacingLeft=4;spacingRight=4;overflow=hidden;rotatable=0;points=[[0,0.5],[1,0.5]];portConstraint=eastwest;whiteSpace=wrap;html=1;" parent="pYM4KknxGki9qGqo0QUS-130" vertex="1">
          <mxGeometry y="26" width="160" height="104" as="geometry" />
        </mxCell>
        <mxCell id="pYM4KknxGki9qGqo0QUS-132" value="" style="line;strokeWidth=1;fillColor=none;align=left;verticalAlign=middle;spacingTop=-1;spacingLeft=3;spacingRight=3;rotatable=0;labelPosition=right;points=[];portConstraint=eastwest;strokeColor=inherit;" parent="pYM4KknxGki9qGqo0QUS-130" vertex="1">
          <mxGeometry y="130" width="160" height="8" as="geometry" />
        </mxCell>
        <mxCell id="LJZgHr9To_zfwPelsCcP-102" style="edgeStyle=orthogonalEdgeStyle;rounded=0;orthogonalLoop=1;jettySize=auto;html=1;exitX=1;exitY=0.5;exitDx=0;exitDy=0;endArrow=none;startFill=0;" edge="1" parent="pYM4KknxGki9qGqo0QUS-130" source="pYM4KknxGki9qGqo0QUS-133">
          <mxGeometry relative="1" as="geometry">
            <mxPoint x="93" y="220" as="targetPoint" />
            <Array as="points">
              <mxPoint x="173" y="151" />
              <mxPoint x="173" y="180" />
              <mxPoint x="93" y="180" />
            </Array>
          </mxGeometry>
        </mxCell>
        <mxCell id="pYM4KknxGki9qGqo0QUS-133" value="+setState(page:Page):void" style="text;strokeColor=none;fillColor=none;align=left;verticalAlign=top;spacingLeft=4;spacingRight=4;overflow=hidden;rotatable=0;points=[[0,0.5],[1,0.5]];portConstraint=eastwest;whiteSpace=wrap;html=1;" parent="pYM4KknxGki9qGqo0QUS-130" vertex="1">
          <mxGeometry y="138" width="160" height="26" as="geometry" />
        </mxCell>
        <mxCell id="pYM4KknxGki9qGqo0QUS-134" value="MapEnduranceRidesPage" style="swimlane;fontStyle=1;align=center;verticalAlign=top;childLayout=stackLayout;horizontal=1;startSize=26;horizontalStack=0;resizeParent=1;resizeParentMax=0;resizeLast=0;collapsible=1;marginBottom=0;whiteSpace=wrap;html=1;" parent="1" vertex="1">
          <mxGeometry x="322" y="-658" width="160" height="60" as="geometry" />
        </mxCell>
        <mxCell id="pYM4KknxGki9qGqo0QUS-135" value="+ mapImage: Image" style="text;strokeColor=none;fillColor=none;align=left;verticalAlign=top;spacingLeft=4;spacingRight=4;overflow=hidden;rotatable=0;points=[[0,0.5],[1,0.5]];portConstraint=eastwest;whiteSpace=wrap;html=1;" parent="pYM4KknxGki9qGqo0QUS-134" vertex="1">
          <mxGeometry y="26" width="160" height="26" as="geometry" />
        </mxCell>
        <mxCell id="pYM4KknxGki9qGqo0QUS-136" value="" style="line;strokeWidth=1;fillColor=none;align=left;verticalAlign=middle;spacingTop=-1;spacingLeft=3;spacingRight=3;rotatable=0;labelPosition=right;points=[];portConstraint=eastwest;strokeColor=inherit;" parent="pYM4KknxGki9qGqo0QUS-134" vertex="1">
          <mxGeometry y="52" width="160" height="8" as="geometry" />
        </mxCell>
        <mxCell id="pYM4KknxGki9qGqo0QUS-138" value="TradeShowPage" style="swimlane;fontStyle=1;align=center;verticalAlign=top;childLayout=stackLayout;horizontal=1;startSize=26;horizontalStack=0;resizeParent=1;resizeParentMax=0;resizeLast=0;collapsible=1;marginBottom=0;whiteSpace=wrap;html=1;" parent="1" vertex="1">
          <mxGeometry x="40" y="-490" width="160" height="100" as="geometry" />
        </mxCell>
        <mxCell id="pYM4KknxGki9qGqo0QUS-139" value="+vendorList:Array&lt;div&gt;&lt;br&gt;&lt;/div&gt;" style="text;strokeColor=none;fillColor=none;align=left;verticalAlign=top;spacingLeft=4;spacingRight=4;overflow=hidden;rotatable=0;points=[[0,0.5],[1,0.5]];portConstraint=eastwest;whiteSpace=wrap;html=1;" parent="pYM4KknxGki9qGqo0QUS-138" vertex="1">
          <mxGeometry y="26" width="160" height="34" as="geometry" />
        </mxCell>
        <mxCell id="pYM4KknxGki9qGqo0QUS-140" value="" style="line;strokeWidth=1;fillColor=none;align=left;verticalAlign=middle;spacingTop=-1;spacingLeft=3;spacingRight=3;rotatable=0;labelPosition=right;points=[];portConstraint=eastwest;strokeColor=inherit;" parent="pYM4KknxGki9qGqo0QUS-138" vertex="1">
          <mxGeometry y="60" width="160" height="8" as="geometry" />
        </mxCell>
        <mxCell id="pYM4KknxGki9qGqo0QUS-141" value="+getVendors():array&lt;div&gt;&lt;br&gt;&lt;/div&gt;" style="text;strokeColor=none;fillColor=none;align=left;verticalAlign=top;spacingLeft=4;spacingRight=4;overflow=hidden;rotatable=0;points=[[0,0.5],[1,0.5]];portConstraint=eastwest;whiteSpace=wrap;html=1;" parent="pYM4KknxGki9qGqo0QUS-138" vertex="1">
          <mxGeometry y="68" width="160" height="32" as="geometry" />
        </mxCell>
        <mxCell id="pYM4KknxGki9qGqo0QUS-142" value="SchedulePage" style="swimlane;fontStyle=1;align=center;verticalAlign=top;childLayout=stackLayout;horizontal=1;startSize=26;horizontalStack=0;resizeParent=1;resizeParentMax=0;resizeLast=0;collapsible=1;marginBottom=0;whiteSpace=wrap;html=1;" parent="1" vertex="1">
          <mxGeometry x="40" y="-880" width="180" height="160" as="geometry" />
        </mxCell>
        <mxCell id="pYM4KknxGki9qGqo0QUS-143" value="&lt;div&gt;+rideschedulesButton:Button&lt;/div&gt;&lt;div&gt;+racescheduleButton:Button&lt;/div&gt;&lt;div&gt;+tradeshowtimesButton:Button&lt;/div&gt;&lt;div&gt;&lt;br&gt;&lt;/div&gt;&lt;div&gt;&lt;br&gt;&lt;/div&gt;" style="text;strokeColor=none;fillColor=none;align=left;verticalAlign=top;spacingLeft=4;spacingRight=4;overflow=hidden;rotatable=0;points=[[0,0.5],[1,0.5]];portConstraint=eastwest;whiteSpace=wrap;html=1;" parent="pYM4KknxGki9qGqo0QUS-142" vertex="1">
          <mxGeometry y="26" width="180" height="64" as="geometry" />
        </mxCell>
        <mxCell id="pYM4KknxGki9qGqo0QUS-144" value="" style="line;strokeWidth=1;fillColor=none;align=left;verticalAlign=middle;spacingTop=-1;spacingLeft=3;spacingRight=3;rotatable=0;labelPosition=right;points=[];portConstraint=eastwest;strokeColor=inherit;" parent="pYM4KknxGki9qGqo0QUS-142" vertex="1">
          <mxGeometry y="90" width="180" height="8" as="geometry" />
        </mxCell>
        <mxCell id="pYM4KknxGki9qGqo0QUS-145" value="+getRideSched():&lt;div&gt;+getRaceSched():&lt;/div&gt;&lt;div&gt;+getTradeSched():&lt;/div&gt;" style="text;strokeColor=none;fillColor=none;align=left;verticalAlign=top;spacingLeft=4;spacingRight=4;overflow=hidden;rotatable=0;points=[[0,0.5],[1,0.5]];portConstraint=eastwest;whiteSpace=wrap;html=1;" parent="pYM4KknxGki9qGqo0QUS-142" vertex="1">
          <mxGeometry y="98" width="180" height="62" as="geometry" />
        </mxCell>
        <mxCell id="d70GMvGcP12yl__OMH9Z-14" value="RegForm" style="swimlane;fontStyle=1;align=center;verticalAlign=top;childLayout=stackLayout;horizontal=1;startSize=26;horizontalStack=0;resizeParent=1;resizeParentMax=0;resizeLast=0;collapsible=1;marginBottom=0;whiteSpace=wrap;html=1;" parent="1" vertex="1">
          <mxGeometry x="597" y="430" width="160" height="180" as="geometry" />
        </mxCell>
        <mxCell id="d70GMvGcP12yl__OMH9Z-15" value="eventType: string&lt;div&gt;eventName: string&lt;/div&gt;&lt;div&gt;rider:Rider&lt;/div&gt;&lt;div&gt;event:Event&lt;/div&gt;" style="text;strokeColor=none;fillColor=none;align=left;verticalAlign=top;spacingLeft=4;spacingRight=4;overflow=hidden;rotatable=0;points=[[0,0.5],[1,0.5]];portConstraint=eastwest;whiteSpace=wrap;html=1;" parent="d70GMvGcP12yl__OMH9Z-14" vertex="1">
          <mxGeometry y="26" width="160" height="74" as="geometry" />
        </mxCell>
        <mxCell id="d70GMvGcP12yl__OMH9Z-16" value="" style="line;strokeWidth=1;fillColor=none;align=left;verticalAlign=middle;spacingTop=-1;spacingLeft=3;spacingRight=3;rotatable=0;labelPosition=right;points=[];portConstraint=eastwest;strokeColor=inherit;" parent="d70GMvGcP12yl__OMH9Z-14" vertex="1">
          <mxGeometry y="100" width="160" height="8" as="geometry" />
        </mxCell>
        <mxCell id="d70GMvGcP12yl__OMH9Z-17" value="+RegForm()" style="text;strokeColor=none;fillColor=none;align=left;verticalAlign=top;spacingLeft=4;spacingRight=4;overflow=hidden;rotatable=0;points=[[0,0.5],[1,0.5]];portConstraint=eastwest;whiteSpace=wrap;html=1;" parent="d70GMvGcP12yl__OMH9Z-14" vertex="1">
          <mxGeometry y="108" width="160" height="72" as="geometry" />
        </mxCell>
        <mxCell id="d70GMvGcP12yl__OMH9Z-32" value="" style="endArrow=block;html=1;rounded=0;endFill=0;strokeWidth=1;edgeStyle=elbowEdgeStyle;elbow=vertical;exitX=0.5;exitY=0;exitDx=0;exitDy=0;" parent="1" source="pYM4KknxGki9qGqo0QUS-47" edge="1">
          <mxGeometry width="50" height="50" relative="1" as="geometry">
            <mxPoint x="115" y="408" as="sourcePoint" />
            <mxPoint x="240" y="340" as="targetPoint" />
            <Array as="points">
              <mxPoint x="383" y="368" />
            </Array>
          </mxGeometry>
        </mxCell>
        <mxCell id="d70GMvGcP12yl__OMH9Z-33" value="" style="endArrow=none;html=1;rounded=0;endFill=0;strokeWidth=1;edgeStyle=elbowEdgeStyle;elbow=vertical;exitX=0.5;exitY=0;exitDx=0;exitDy=0;startFill=0;" parent="1" source="pYM4KknxGki9qGqo0QUS-51" edge="1">
          <mxGeometry width="50" height="50" relative="1" as="geometry">
            <mxPoint x="352" y="380" as="sourcePoint" />
            <mxPoint x="240" y="360" as="targetPoint" />
            <Array as="points">
              <mxPoint x="302" y="367" />
            </Array>
          </mxGeometry>
        </mxCell>
        <mxCell id="d70GMvGcP12yl__OMH9Z-36" value="" style="endArrow=none;html=1;edgeStyle=orthogonalEdgeStyle;rounded=0;exitX=1;exitY=0.447;exitDx=0;exitDy=0;exitPerimeter=0;entryX=-0.002;entryY=0.648;entryDx=0;entryDy=0;entryPerimeter=0;" parent="1" source="pYM4KknxGki9qGqo0QUS-97" target="d70GMvGcP12yl__OMH9Z-15" edge="1">
          <mxGeometry relative="1" as="geometry">
            <mxPoint x="830" y="500" as="sourcePoint" />
            <mxPoint x="590" y="504" as="targetPoint" />
          </mxGeometry>
        </mxCell>
        <mxCell id="d70GMvGcP12yl__OMH9Z-37" value="1" style="edgeLabel;resizable=0;html=1;align=left;verticalAlign=bottom;" parent="d70GMvGcP12yl__OMH9Z-36" connectable="0" vertex="1">
          <mxGeometry x="-1" relative="1" as="geometry">
            <mxPoint x="10" as="offset" />
          </mxGeometry>
        </mxCell>
        <mxCell id="d70GMvGcP12yl__OMH9Z-39" value="Completes" style="text;align=center;fontStyle=1;verticalAlign=middle;spacingLeft=3;spacingRight=3;strokeColor=none;rotatable=0;points=[[0,0.5],[1,0.5]];portConstraint=eastwest;html=1;" parent="1" vertex="1">
          <mxGeometry x="465" y="510" width="80" height="26" as="geometry" />
        </mxCell>
        <mxCell id="d70GMvGcP12yl__OMH9Z-40" value="" style="shape=mxgraph.arrows2.wedgeArrow;html=1;bendable=0;startWidth=7.586206896551726;fillColor=strokeColor;defaultFillColor=invert;defaultGradientColor=invert;rounded=0;" parent="1" edge="1">
          <mxGeometry width="100" height="100" relative="1" as="geometry">
            <mxPoint x="543" y="524" as="sourcePoint" />
            <mxPoint x="558" y="524" as="targetPoint" />
          </mxGeometry>
        </mxCell>
        <mxCell id="JsiSuxxwU8sM0iO7odkz-2" value="Front End Component Domain Model" style="text;align=center;fontStyle=1;verticalAlign=middle;spacingLeft=3;spacingRight=3;strokeColor=none;rotatable=0;points=[[0,0.5],[1,0.5]];portConstraint=eastwest;html=1;fontSize=23;" parent="1" vertex="1">
          <mxGeometry x="757" y="-1080" width="80" height="26" as="geometry" />
        </mxCell>
        <mxCell id="JsiSuxxwU8sM0iO7odkz-6" value="" style="endArrow=none;dashed=1;html=1;strokeWidth=2;rounded=0;" parent="1" edge="1">
          <mxGeometry width="50" height="50" relative="1" as="geometry">
            <mxPoint x="502" y="400" as="sourcePoint" />
            <mxPoint x="502" y="500" as="targetPoint" />
          </mxGeometry>
        </mxCell>
        <mxCell id="JsiSuxxwU8sM0iO7odkz-8" value="1..*" style="edgeLabel;resizable=0;html=1;align=left;verticalAlign=bottom;" parent="1" connectable="0" vertex="1">
          <mxGeometry x="575.3299999999999" y="503.6039999999998" as="geometry" />
        </mxCell>
        <mxCell id="JsiSuxxwU8sM0iO7odkz-9" value="" style="endArrow=none;html=1;edgeStyle=orthogonalEdgeStyle;rounded=0;exitX=0.495;exitY=0.989;exitDx=0;exitDy=0;exitPerimeter=0;entryX=0.5;entryY=0;entryDx=0;entryDy=0;" parent="1" source="d70GMvGcP12yl__OMH9Z-12" target="pYM4KknxGki9qGqo0QUS-114" edge="1">
          <mxGeometry relative="1" as="geometry">
            <mxPoint x="343" y="750" as="sourcePoint" />
            <mxPoint x="590" y="750" as="targetPoint" />
          </mxGeometry>
        </mxCell>
        <mxCell id="JsiSuxxwU8sM0iO7odkz-10" value="1" style="edgeLabel;resizable=0;html=1;align=left;verticalAlign=bottom;" parent="JsiSuxxwU8sM0iO7odkz-9" connectable="0" vertex="1">
          <mxGeometry x="-1" relative="1" as="geometry">
            <mxPoint x="8" y="20" as="offset" />
          </mxGeometry>
        </mxCell>
        <mxCell id="JsiSuxxwU8sM0iO7odkz-12" value="Registers for" style="text;align=center;fontStyle=1;verticalAlign=middle;spacingLeft=3;spacingRight=3;strokeColor=none;rotatable=0;points=[[0,0.5],[1,0.5]];portConstraint=eastwest;html=1;" parent="1" vertex="1">
          <mxGeometry x="320" y="740" width="80" height="26" as="geometry" />
        </mxCell>
        <mxCell id="JsiSuxxwU8sM0iO7odkz-13" value="1..*" style="edgeLabel;resizable=0;html=1;align=left;verticalAlign=bottom;" parent="1" connectable="0" vertex="1">
          <mxGeometry x="322.3299999999999" y="798.6039999999998" as="geometry" />
        </mxCell>
        <mxCell id="JsiSuxxwU8sM0iO7odkz-14" value="" style="shape=mxgraph.arrows2.wedgeArrow;html=1;bendable=0;startWidth=7.586206896551726;fillColor=strokeColor;defaultFillColor=invert;defaultGradientColor=invert;rounded=0;" parent="1" edge="1">
          <mxGeometry width="100" height="100" relative="1" as="geometry">
            <mxPoint x="360" y="765" as="sourcePoint" />
            <mxPoint x="360" y="779" as="targetPoint" />
          </mxGeometry>
        </mxCell>
        <mxCell id="JsiSuxxwU8sM0iO7odkz-15" value="MakeForm" style="swimlane;fontStyle=1;align=center;verticalAlign=top;childLayout=stackLayout;horizontal=1;startSize=26;horizontalStack=0;resizeParent=1;resizeParentMax=0;resizeLast=0;collapsible=1;marginBottom=0;whiteSpace=wrap;html=1;" parent="1" vertex="1">
          <mxGeometry x="425" y="220" width="160" height="180" as="geometry" />
        </mxCell>
        <mxCell id="JsiSuxxwU8sM0iO7odkz-16" value="rider*: Rider&lt;div&gt;event*:Event&lt;/div&gt;&lt;div&gt;form:RegForm&lt;/div&gt;" style="text;strokeColor=none;fillColor=none;align=left;verticalAlign=top;spacingLeft=4;spacingRight=4;overflow=hidden;rotatable=0;points=[[0,0.5],[1,0.5]];portConstraint=eastwest;whiteSpace=wrap;html=1;" parent="JsiSuxxwU8sM0iO7odkz-15" vertex="1">
          <mxGeometry y="26" width="160" height="54" as="geometry" />
        </mxCell>
        <mxCell id="JsiSuxxwU8sM0iO7odkz-17" value="" style="line;strokeWidth=1;fillColor=none;align=left;verticalAlign=middle;spacingTop=-1;spacingLeft=3;spacingRight=3;rotatable=0;labelPosition=right;points=[];portConstraint=eastwest;strokeColor=inherit;" parent="JsiSuxxwU8sM0iO7odkz-15" vertex="1">
          <mxGeometry y="80" width="160" height="8" as="geometry" />
        </mxCell>
        <mxCell id="JsiSuxxwU8sM0iO7odkz-18" value="getForm();RegForm&lt;div&gt;fillForm():void&lt;/div&gt;&lt;div&gt;submit(Form):RegForm&lt;/div&gt;&lt;div&gt;Rider ():rider&lt;/div&gt;&lt;div&gt;RegForm():RegForm&lt;/div&gt;&lt;div&gt;&lt;br&gt;&lt;/div&gt;" style="text;strokeColor=none;fillColor=none;align=left;verticalAlign=top;spacingLeft=4;spacingRight=4;overflow=hidden;rotatable=0;points=[[0,0.5],[1,0.5]];portConstraint=eastwest;whiteSpace=wrap;html=1;" parent="JsiSuxxwU8sM0iO7odkz-15" vertex="1">
          <mxGeometry y="88" width="160" height="92" as="geometry" />
        </mxCell>
        <mxCell id="JsiSuxxwU8sM0iO7odkz-19" value="" style="endArrow=none;dashed=1;html=1;dashPattern=1 3;strokeWidth=2;rounded=0;exitX=1;exitY=0.351;exitDx=0;exitDy=0;exitPerimeter=0;" parent="1" source="pYM4KknxGki9qGqo0QUS-108" edge="1">
          <mxGeometry width="50" height="50" relative="1" as="geometry">
            <mxPoint x="195.68" y="763.4000000000001" as="sourcePoint" />
            <mxPoint x="316" y="763" as="targetPoint" />
          </mxGeometry>
        </mxCell>
        <mxCell id="JsiSuxxwU8sM0iO7odkz-20" value="Back End Domain Model" style="text;html=1;align=center;verticalAlign=middle;whiteSpace=wrap;rounded=0;fontSize=24;" parent="1" vertex="1">
          <mxGeometry x="245.32999999999998" y="80" width="330" height="30" as="geometry" />
        </mxCell>
        <mxCell id="JsiSuxxwU8sM0iO7odkz-56" value="LandingPage" style="swimlane;fontStyle=1;align=center;verticalAlign=top;childLayout=stackLayout;horizontal=1;startSize=26;horizontalStack=0;resizeParent=1;resizeParentMax=0;resizeLast=0;collapsible=1;marginBottom=0;whiteSpace=wrap;html=1;" parent="1" vertex="1">
          <mxGeometry x="40" y="-1070" width="160" height="140" as="geometry" />
        </mxCell>
        <mxCell id="JsiSuxxwU8sM0iO7odkz-57" value="+state:State&lt;div&gt;+FNameField:TextField&lt;/div&gt;&lt;div&gt;+LNameField:TextField&lt;/div&gt;&lt;div&gt;+emailField:TextField&lt;/div&gt;" style="text;strokeColor=none;fillColor=none;align=left;verticalAlign=top;spacingLeft=4;spacingRight=4;overflow=hidden;rotatable=0;points=[[0,0.5],[1,0.5]];portConstraint=eastwest;whiteSpace=wrap;html=1;" parent="JsiSuxxwU8sM0iO7odkz-56" vertex="1">
          <mxGeometry y="26" width="160" height="74" as="geometry" />
        </mxCell>
        <mxCell id="JsiSuxxwU8sM0iO7odkz-58" value="" style="line;strokeWidth=1;fillColor=none;align=left;verticalAlign=middle;spacingTop=-1;spacingLeft=3;spacingRight=3;rotatable=0;labelPosition=right;points=[];portConstraint=eastwest;strokeColor=inherit;" parent="JsiSuxxwU8sM0iO7odkz-56" vertex="1">
          <mxGeometry y="100" width="160" height="8" as="geometry" />
        </mxCell>
        <mxCell id="JsiSuxxwU8sM0iO7odkz-59" value="+setState(page:Page):void" style="text;strokeColor=none;fillColor=none;align=left;verticalAlign=top;spacingLeft=4;spacingRight=4;overflow=hidden;rotatable=0;points=[[0,0.5],[1,0.5]];portConstraint=eastwest;whiteSpace=wrap;html=1;" parent="JsiSuxxwU8sM0iO7odkz-56" vertex="1">
          <mxGeometry y="108" width="160" height="32" as="geometry" />
        </mxCell>
        <mxCell id="LJZgHr9To_zfwPelsCcP-1" value="RegEndurancePage" style="swimlane;fontStyle=1;align=center;verticalAlign=top;childLayout=stackLayout;horizontal=1;startSize=26;horizontalStack=0;resizeParent=1;resizeParentMax=0;resizeLast=0;collapsible=1;marginBottom=0;whiteSpace=wrap;html=1;" vertex="1" parent="1">
          <mxGeometry x="850" y="-799" width="220" height="270" as="geometry" />
        </mxCell>
        <mxCell id="LJZgHr9To_zfwPelsCcP-2" value="&lt;div&gt;+state:Stat&lt;/div&gt;&lt;div&gt;+eventName:Event&lt;/div&gt;&lt;div&gt;+FNameFormField:FormField&lt;/div&gt;&lt;div&gt;+LNameFormField:FormField&lt;/div&gt;&lt;div&gt;+emailFormField:FormField&lt;/div&gt;&lt;div&gt;+phoneNumFormField:FormField&lt;/div&gt;&lt;div&gt;+cityFormFIeld:FormField&lt;/div&gt;&lt;div&gt;+ageFormField:FormField&lt;/div&gt;&lt;div&gt;+emerConNameFormField:FormField&lt;/div&gt;&lt;div&gt;+emerConNumFormField:FormField&lt;/div&gt;&lt;div&gt;+adultToggle:Toggle&lt;/div&gt;" style="text;strokeColor=none;fillColor=none;align=left;verticalAlign=top;spacingLeft=4;spacingRight=4;overflow=hidden;rotatable=0;points=[[0,0.5],[1,0.5]];portConstraint=eastwest;whiteSpace=wrap;html=1;" vertex="1" parent="LJZgHr9To_zfwPelsCcP-1">
          <mxGeometry y="26" width="220" height="184" as="geometry" />
        </mxCell>
        <mxCell id="LJZgHr9To_zfwPelsCcP-3" value="" style="line;strokeWidth=1;fillColor=none;align=left;verticalAlign=middle;spacingTop=-1;spacingLeft=3;spacingRight=3;rotatable=0;labelPosition=right;points=[];portConstraint=eastwest;strokeColor=inherit;" vertex="1" parent="LJZgHr9To_zfwPelsCcP-1">
          <mxGeometry y="210" width="220" height="8" as="geometry" />
        </mxCell>
        <mxCell id="LJZgHr9To_zfwPelsCcP-4" value="+getState(page:Page):State&lt;div&gt;+passState(button:Button):State&lt;/div&gt;&lt;div&gt;+submitForm(Form):void&lt;/div&gt;" style="text;strokeColor=none;fillColor=none;align=left;verticalAlign=top;spacingLeft=4;spacingRight=4;overflow=hidden;rotatable=0;points=[[0,0.5],[1,0.5]];portConstraint=eastwest;whiteSpace=wrap;html=1;" vertex="1" parent="LJZgHr9To_zfwPelsCcP-1">
          <mxGeometry y="218" width="220" height="52" as="geometry" />
        </mxCell>
        <mxCell id="LJZgHr9To_zfwPelsCcP-6" value="LocalInfoPage" style="swimlane;fontStyle=1;align=center;verticalAlign=top;childLayout=stackLayout;horizontal=1;startSize=26;horizontalStack=0;resizeParent=1;resizeParentMax=0;resizeLast=0;collapsible=1;marginBottom=0;whiteSpace=wrap;html=1;" vertex="1" parent="1">
          <mxGeometry x="40" y="-677" width="160" height="150" as="geometry" />
        </mxCell>
        <mxCell id="LJZgHr9To_zfwPelsCcP-7" value="+restaurants:Array&lt;div&gt;+lodging:Array&lt;/div&gt;" style="text;strokeColor=none;fillColor=none;align=left;verticalAlign=top;spacingLeft=4;spacingRight=4;overflow=hidden;rotatable=0;points=[[0,0.5],[1,0.5]];portConstraint=eastwest;whiteSpace=wrap;html=1;" vertex="1" parent="LJZgHr9To_zfwPelsCcP-6">
          <mxGeometry y="26" width="160" height="54" as="geometry" />
        </mxCell>
        <mxCell id="LJZgHr9To_zfwPelsCcP-8" value="" style="line;strokeWidth=1;fillColor=none;align=left;verticalAlign=middle;spacingTop=-1;spacingLeft=3;spacingRight=3;rotatable=0;labelPosition=right;points=[];portConstraint=eastwest;strokeColor=inherit;" vertex="1" parent="LJZgHr9To_zfwPelsCcP-6">
          <mxGeometry y="80" width="160" height="8" as="geometry" />
        </mxCell>
        <mxCell id="LJZgHr9To_zfwPelsCcP-9" value="+getRestaurants():array&lt;div&gt;+getLodging():array&lt;/div&gt;" style="text;strokeColor=none;fillColor=none;align=left;verticalAlign=top;spacingLeft=4;spacingRight=4;overflow=hidden;rotatable=0;points=[[0,0.5],[1,0.5]];portConstraint=eastwest;whiteSpace=wrap;html=1;" vertex="1" parent="LJZgHr9To_zfwPelsCcP-6">
          <mxGeometry y="88" width="160" height="62" as="geometry" />
        </mxCell>
        <mxCell id="LJZgHr9To_zfwPelsCcP-10" value="LoginPage" style="swimlane;fontStyle=1;align=center;verticalAlign=top;childLayout=stackLayout;horizontal=1;startSize=26;horizontalStack=0;resizeParent=1;resizeParentMax=0;resizeLast=0;collapsible=1;marginBottom=0;whiteSpace=wrap;html=1;" vertex="1" parent="1">
          <mxGeometry x="554" y="-860" width="210" height="140" as="geometry" />
        </mxCell>
        <mxCell id="LJZgHr9To_zfwPelsCcP-11" value="&lt;div&gt;+username:string&lt;/div&gt;+password:string&lt;div&gt;&lt;br&gt;&lt;/div&gt;" style="text;strokeColor=none;fillColor=none;align=left;verticalAlign=top;spacingLeft=4;spacingRight=4;overflow=hidden;rotatable=0;points=[[0,0.5],[1,0.5]];portConstraint=eastwest;whiteSpace=wrap;html=1;" vertex="1" parent="LJZgHr9To_zfwPelsCcP-10">
          <mxGeometry y="26" width="210" height="54" as="geometry" />
        </mxCell>
        <mxCell id="LJZgHr9To_zfwPelsCcP-12" value="" style="line;strokeWidth=1;fillColor=none;align=left;verticalAlign=middle;spacingTop=-1;spacingLeft=3;spacingRight=3;rotatable=0;labelPosition=right;points=[];portConstraint=eastwest;strokeColor=inherit;" vertex="1" parent="LJZgHr9To_zfwPelsCcP-10">
          <mxGeometry y="80" width="210" height="8" as="geometry" />
        </mxCell>
        <mxCell id="LJZgHr9To_zfwPelsCcP-13" value="+getUserName():string&lt;div&gt;+getPassword():string&lt;/div&gt;&lt;div&gt;+validateLogin(UN:string, PW:string):&lt;/div&gt;" style="text;strokeColor=none;fillColor=none;align=left;verticalAlign=top;spacingLeft=4;spacingRight=4;overflow=hidden;rotatable=0;points=[[0,0.5],[1,0.5]];portConstraint=eastwest;whiteSpace=wrap;html=1;" vertex="1" parent="LJZgHr9To_zfwPelsCcP-10">
          <mxGeometry y="88" width="210" height="52" as="geometry" />
        </mxCell>
        <mxCell id="LJZgHr9To_zfwPelsCcP-14" value="RegGravelPage" style="swimlane;fontStyle=1;align=center;verticalAlign=top;childLayout=stackLayout;horizontal=1;startSize=26;horizontalStack=0;resizeParent=1;resizeParentMax=0;resizeLast=0;collapsible=1;marginBottom=0;whiteSpace=wrap;html=1;" vertex="1" parent="1">
          <mxGeometry x="1156" y="-800" width="220" height="270" as="geometry" />
        </mxCell>
        <mxCell id="LJZgHr9To_zfwPelsCcP-15" value="&lt;div&gt;+state:State&lt;/div&gt;&lt;div&gt;+eventName:Event&lt;/div&gt;&lt;div&gt;&lt;span style=&quot;background-color: transparent; color: light-dark(rgb(0, 0, 0), rgb(255, 255, 255));&quot;&gt;+FNameFormField:FormField&lt;/span&gt;&lt;/div&gt;&lt;div&gt;+LNameFormField:FormField&lt;/div&gt;&lt;div&gt;+emailFormField:FormField&lt;/div&gt;&lt;div&gt;+phoneNumFormField:FormField&lt;/div&gt;&lt;div&gt;+cityFormFIeld:FormField&lt;/div&gt;&lt;div&gt;+ageFormField:FormField&lt;/div&gt;&lt;div&gt;+emerConNameFormField:FormField&lt;/div&gt;&lt;div&gt;+emerConNumFormField:FormField&lt;/div&gt;&lt;div&gt;+adultToggle:Toggle&lt;/div&gt;" style="text;strokeColor=none;fillColor=none;align=left;verticalAlign=top;spacingLeft=4;spacingRight=4;overflow=hidden;rotatable=0;points=[[0,0.5],[1,0.5]];portConstraint=eastwest;whiteSpace=wrap;html=1;" vertex="1" parent="LJZgHr9To_zfwPelsCcP-14">
          <mxGeometry y="26" width="220" height="184" as="geometry" />
        </mxCell>
        <mxCell id="LJZgHr9To_zfwPelsCcP-16" value="" style="line;strokeWidth=1;fillColor=none;align=left;verticalAlign=middle;spacingTop=-1;spacingLeft=3;spacingRight=3;rotatable=0;labelPosition=right;points=[];portConstraint=eastwest;strokeColor=inherit;" vertex="1" parent="LJZgHr9To_zfwPelsCcP-14">
          <mxGeometry y="210" width="220" height="8" as="geometry" />
        </mxCell>
        <mxCell id="LJZgHr9To_zfwPelsCcP-17" value="+getState(page:Page):State&lt;div&gt;+passState(button:Button):State&lt;/div&gt;&lt;div&gt;+submitForm(Form):void&lt;/div&gt;" style="text;strokeColor=none;fillColor=none;align=left;verticalAlign=top;spacingLeft=4;spacingRight=4;overflow=hidden;rotatable=0;points=[[0,0.5],[1,0.5]];portConstraint=eastwest;whiteSpace=wrap;html=1;" vertex="1" parent="LJZgHr9To_zfwPelsCcP-14">
          <mxGeometry y="218" width="220" height="52" as="geometry" />
        </mxCell>
        <mxCell id="LJZgHr9To_zfwPelsCcP-18" value="RegRunPage" style="swimlane;fontStyle=1;align=center;verticalAlign=top;childLayout=stackLayout;horizontal=1;startSize=26;horizontalStack=0;resizeParent=1;resizeParentMax=0;resizeLast=0;collapsible=1;marginBottom=0;whiteSpace=wrap;html=1;" vertex="1" parent="1">
          <mxGeometry x="850" y="-461" width="220" height="270" as="geometry" />
        </mxCell>
        <mxCell id="LJZgHr9To_zfwPelsCcP-19" value="&lt;div&gt;+state:State&lt;/div&gt;&lt;div&gt;&lt;div&gt;+eventName:Event&lt;/div&gt;&lt;/div&gt;&lt;div&gt;&lt;span style=&quot;background-color: transparent; color: light-dark(rgb(0, 0, 0), rgb(255, 255, 255));&quot;&gt;+FNameFormField:FormField&lt;/span&gt;&lt;/div&gt;&lt;div&gt;+LNameFormField:FormField&lt;/div&gt;&lt;div&gt;+emailFormField:FormField&lt;/div&gt;&lt;div&gt;+phoneNumFormField:FormField&lt;/div&gt;&lt;div&gt;+cityFormFIeld:FormField&lt;/div&gt;&lt;div&gt;+ageFormField:FormField&lt;/div&gt;&lt;div&gt;+emerConNameFormField:FormField&lt;/div&gt;&lt;div&gt;+emerConNumFormField:FormField&lt;/div&gt;&lt;div&gt;+adultToggle:Toggle&lt;/div&gt;" style="text;strokeColor=none;fillColor=none;align=left;verticalAlign=top;spacingLeft=4;spacingRight=4;overflow=hidden;rotatable=0;points=[[0,0.5],[1,0.5]];portConstraint=eastwest;whiteSpace=wrap;html=1;" vertex="1" parent="LJZgHr9To_zfwPelsCcP-18">
          <mxGeometry y="26" width="220" height="184" as="geometry" />
        </mxCell>
        <mxCell id="LJZgHr9To_zfwPelsCcP-20" value="" style="line;strokeWidth=1;fillColor=none;align=left;verticalAlign=middle;spacingTop=-1;spacingLeft=3;spacingRight=3;rotatable=0;labelPosition=right;points=[];portConstraint=eastwest;strokeColor=inherit;" vertex="1" parent="LJZgHr9To_zfwPelsCcP-18">
          <mxGeometry y="210" width="220" height="8" as="geometry" />
        </mxCell>
        <mxCell id="LJZgHr9To_zfwPelsCcP-21" value="+getState(page:Page):State&lt;div&gt;+passState(button:Button):State&lt;/div&gt;&lt;div&gt;+submitForm(Form):void&lt;/div&gt;" style="text;strokeColor=none;fillColor=none;align=left;verticalAlign=top;spacingLeft=4;spacingRight=4;overflow=hidden;rotatable=0;points=[[0,0.5],[1,0.5]];portConstraint=eastwest;whiteSpace=wrap;html=1;" vertex="1" parent="LJZgHr9To_zfwPelsCcP-18">
          <mxGeometry y="218" width="220" height="52" as="geometry" />
        </mxCell>
        <mxCell id="LJZgHr9To_zfwPelsCcP-22" value="Reg10KChildPage" style="swimlane;fontStyle=1;align=center;verticalAlign=top;childLayout=stackLayout;horizontal=1;startSize=26;horizontalStack=0;resizeParent=1;resizeParentMax=0;resizeLast=0;collapsible=1;marginBottom=0;whiteSpace=wrap;html=1;" vertex="1" parent="1">
          <mxGeometry x="1465" y="-812" width="220" height="270" as="geometry" />
        </mxCell>
        <mxCell id="LJZgHr9To_zfwPelsCcP-23" value="&lt;div&gt;+state:State&lt;/div&gt;&lt;div&gt;&lt;div&gt;+eventName:Event&lt;/div&gt;&lt;/div&gt;&lt;div&gt;&lt;span style=&quot;background-color: transparent; color: light-dark(rgb(0, 0, 0), rgb(255, 255, 255));&quot;&gt;+FNameFormField:FormField&lt;/span&gt;&lt;/div&gt;&lt;div&gt;+LNameFormField:FormField&lt;/div&gt;&lt;div&gt;+emailFormField:FormField&lt;/div&gt;&lt;div&gt;+phoneNumFormField:FormField&lt;/div&gt;&lt;div&gt;+cityFormFIeld:FormField&lt;/div&gt;&lt;div&gt;+ageFormField:FormField&lt;/div&gt;&lt;div&gt;+emerConNameFormField:FormField&lt;/div&gt;&lt;div&gt;+emerConNumFormField:FormField&lt;/div&gt;&lt;div&gt;+adultToggle:Toggle&lt;/div&gt;" style="text;strokeColor=none;fillColor=none;align=left;verticalAlign=top;spacingLeft=4;spacingRight=4;overflow=hidden;rotatable=0;points=[[0,0.5],[1,0.5]];portConstraint=eastwest;whiteSpace=wrap;html=1;" vertex="1" parent="LJZgHr9To_zfwPelsCcP-22">
          <mxGeometry y="26" width="220" height="184" as="geometry" />
        </mxCell>
        <mxCell id="LJZgHr9To_zfwPelsCcP-24" value="" style="line;strokeWidth=1;fillColor=none;align=left;verticalAlign=middle;spacingTop=-1;spacingLeft=3;spacingRight=3;rotatable=0;labelPosition=right;points=[];portConstraint=eastwest;strokeColor=inherit;" vertex="1" parent="LJZgHr9To_zfwPelsCcP-22">
          <mxGeometry y="210" width="220" height="8" as="geometry" />
        </mxCell>
        <mxCell id="LJZgHr9To_zfwPelsCcP-25" value="+getState(page:Page):State&lt;div&gt;+passState(button:Button):State&lt;/div&gt;&lt;div&gt;+submitForm(Form):void&lt;/div&gt;" style="text;strokeColor=none;fillColor=none;align=left;verticalAlign=top;spacingLeft=4;spacingRight=4;overflow=hidden;rotatable=0;points=[[0,0.5],[1,0.5]];portConstraint=eastwest;whiteSpace=wrap;html=1;" vertex="1" parent="LJZgHr9To_zfwPelsCcP-22">
          <mxGeometry y="218" width="220" height="52" as="geometry" />
        </mxCell>
        <mxCell id="LJZgHr9To_zfwPelsCcP-26" value="RegMTBikePage" style="swimlane;fontStyle=1;align=center;verticalAlign=top;childLayout=stackLayout;horizontal=1;startSize=26;horizontalStack=0;resizeParent=1;resizeParentMax=0;resizeLast=0;collapsible=1;marginBottom=0;whiteSpace=wrap;html=1;" vertex="1" parent="1">
          <mxGeometry x="1156" y="-461" width="220" height="270" as="geometry" />
        </mxCell>
        <mxCell id="LJZgHr9To_zfwPelsCcP-27" value="&lt;div&gt;+state:State&lt;/div&gt;&lt;div&gt;&lt;div&gt;+eventName:Event&lt;/div&gt;&lt;/div&gt;&lt;div&gt;&lt;span style=&quot;background-color: transparent; color: light-dark(rgb(0, 0, 0), rgb(255, 255, 255));&quot;&gt;+FNameFormField:FormField&lt;/span&gt;&lt;/div&gt;&lt;div&gt;+LNameFormField:FormField&lt;/div&gt;&lt;div&gt;+emailFormField:FormField&lt;/div&gt;&lt;div&gt;+phoneNumFormField:FormField&lt;/div&gt;&lt;div&gt;+cityFormFIeld:FormField&lt;/div&gt;&lt;div&gt;+ageFormField:FormField&lt;/div&gt;&lt;div&gt;+emerConNameFormField:FormField&lt;/div&gt;&lt;div&gt;+emerConNumFormField:FormField&lt;/div&gt;&lt;div&gt;+adultToggle:Toggle&lt;/div&gt;" style="text;strokeColor=none;fillColor=none;align=left;verticalAlign=top;spacingLeft=4;spacingRight=4;overflow=hidden;rotatable=0;points=[[0,0.5],[1,0.5]];portConstraint=eastwest;whiteSpace=wrap;html=1;" vertex="1" parent="LJZgHr9To_zfwPelsCcP-26">
          <mxGeometry y="26" width="220" height="184" as="geometry" />
        </mxCell>
        <mxCell id="LJZgHr9To_zfwPelsCcP-28" value="" style="line;strokeWidth=1;fillColor=none;align=left;verticalAlign=middle;spacingTop=-1;spacingLeft=3;spacingRight=3;rotatable=0;labelPosition=right;points=[];portConstraint=eastwest;strokeColor=inherit;" vertex="1" parent="LJZgHr9To_zfwPelsCcP-26">
          <mxGeometry y="210" width="220" height="8" as="geometry" />
        </mxCell>
        <mxCell id="LJZgHr9To_zfwPelsCcP-29" value="+getState(page:Page):State&lt;div&gt;+passState(button:Button):State&lt;/div&gt;&lt;div&gt;+submitForm(Form):void&lt;/div&gt;" style="text;strokeColor=none;fillColor=none;align=left;verticalAlign=top;spacingLeft=4;spacingRight=4;overflow=hidden;rotatable=0;points=[[0,0.5],[1,0.5]];portConstraint=eastwest;whiteSpace=wrap;html=1;" vertex="1" parent="LJZgHr9To_zfwPelsCcP-26">
          <mxGeometry y="218" width="220" height="52" as="geometry" />
        </mxCell>
        <mxCell id="LJZgHr9To_zfwPelsCcP-30" value="Reg10AdultPage" style="swimlane;fontStyle=1;align=center;verticalAlign=top;childLayout=stackLayout;horizontal=1;startSize=26;horizontalStack=0;resizeParent=1;resizeParentMax=0;resizeLast=0;collapsible=1;marginBottom=0;whiteSpace=wrap;html=1;" vertex="1" parent="1">
          <mxGeometry x="1465" y="-285" width="220" height="270" as="geometry" />
        </mxCell>
        <mxCell id="LJZgHr9To_zfwPelsCcP-31" value="&lt;div&gt;+state:State&lt;/div&gt;&lt;div&gt;&lt;div&gt;+eventName:Event&lt;/div&gt;&lt;/div&gt;&lt;div&gt;&lt;span style=&quot;background-color: transparent; color: light-dark(rgb(0, 0, 0), rgb(255, 255, 255));&quot;&gt;+FNameFormField:FormField&lt;/span&gt;&lt;/div&gt;&lt;div&gt;+LNameFormField:FormField&lt;/div&gt;&lt;div&gt;+emailFormField:FormField&lt;/div&gt;&lt;div&gt;+phoneNumFormField:FormField&lt;/div&gt;&lt;div&gt;+cityFormFIeld:FormField&lt;/div&gt;&lt;div&gt;+ageFormField:FormField&lt;/div&gt;&lt;div&gt;+emerConNameFormField:FormField&lt;/div&gt;&lt;div&gt;+emerConNumFormField:FormField&lt;/div&gt;&lt;div&gt;+adultToggle:Toggle&lt;/div&gt;" style="text;strokeColor=none;fillColor=none;align=left;verticalAlign=top;spacingLeft=4;spacingRight=4;overflow=hidden;rotatable=0;points=[[0,0.5],[1,0.5]];portConstraint=eastwest;whiteSpace=wrap;html=1;" vertex="1" parent="LJZgHr9To_zfwPelsCcP-30">
          <mxGeometry y="26" width="220" height="184" as="geometry" />
        </mxCell>
        <mxCell id="LJZgHr9To_zfwPelsCcP-32" value="" style="line;strokeWidth=1;fillColor=none;align=left;verticalAlign=middle;spacingTop=-1;spacingLeft=3;spacingRight=3;rotatable=0;labelPosition=right;points=[];portConstraint=eastwest;strokeColor=inherit;" vertex="1" parent="LJZgHr9To_zfwPelsCcP-30">
          <mxGeometry y="210" width="220" height="8" as="geometry" />
        </mxCell>
        <mxCell id="LJZgHr9To_zfwPelsCcP-33" value="+getState(page:Page):State&lt;div&gt;+passState(button:Button):State&lt;/div&gt;&lt;div&gt;+submitForm(Form):void&lt;/div&gt;" style="text;strokeColor=none;fillColor=none;align=left;verticalAlign=top;spacingLeft=4;spacingRight=4;overflow=hidden;rotatable=0;points=[[0,0.5],[1,0.5]];portConstraint=eastwest;whiteSpace=wrap;html=1;" vertex="1" parent="LJZgHr9To_zfwPelsCcP-30">
          <mxGeometry y="218" width="220" height="52" as="geometry" />
        </mxCell>
        <mxCell id="LJZgHr9To_zfwPelsCcP-34" value="Map10KPage" style="swimlane;fontStyle=1;align=center;verticalAlign=top;childLayout=stackLayout;horizontal=1;startSize=26;horizontalStack=0;resizeParent=1;resizeParentMax=0;resizeLast=0;collapsible=1;marginBottom=0;whiteSpace=wrap;html=1;" vertex="1" parent="1">
          <mxGeometry x="322" y="-561" width="160" height="60" as="geometry" />
        </mxCell>
        <mxCell id="LJZgHr9To_zfwPelsCcP-35" value="+ mapImage: Image" style="text;strokeColor=none;fillColor=none;align=left;verticalAlign=top;spacingLeft=4;spacingRight=4;overflow=hidden;rotatable=0;points=[[0,0.5],[1,0.5]];portConstraint=eastwest;whiteSpace=wrap;html=1;" vertex="1" parent="LJZgHr9To_zfwPelsCcP-34">
          <mxGeometry y="26" width="160" height="26" as="geometry" />
        </mxCell>
        <mxCell id="LJZgHr9To_zfwPelsCcP-36" value="" style="line;strokeWidth=1;fillColor=none;align=left;verticalAlign=middle;spacingTop=-1;spacingLeft=3;spacingRight=3;rotatable=0;labelPosition=right;points=[];portConstraint=eastwest;strokeColor=inherit;" vertex="1" parent="LJZgHr9To_zfwPelsCcP-34">
          <mxGeometry y="52" width="160" height="8" as="geometry" />
        </mxCell>
        <mxCell id="LJZgHr9To_zfwPelsCcP-37" value="MapMBRunPage" style="swimlane;fontStyle=1;align=center;verticalAlign=top;childLayout=stackLayout;horizontal=1;startSize=26;horizontalStack=0;resizeParent=1;resizeParentMax=0;resizeLast=0;collapsible=1;marginBottom=0;whiteSpace=wrap;html=1;" vertex="1" parent="1">
          <mxGeometry x="322" y="-462" width="160" height="60" as="geometry" />
        </mxCell>
        <mxCell id="LJZgHr9To_zfwPelsCcP-38" value="+ mapImage: Image" style="text;strokeColor=none;fillColor=none;align=left;verticalAlign=top;spacingLeft=4;spacingRight=4;overflow=hidden;rotatable=0;points=[[0,0.5],[1,0.5]];portConstraint=eastwest;whiteSpace=wrap;html=1;" vertex="1" parent="LJZgHr9To_zfwPelsCcP-37">
          <mxGeometry y="26" width="160" height="26" as="geometry" />
        </mxCell>
        <mxCell id="LJZgHr9To_zfwPelsCcP-39" value="" style="line;strokeWidth=1;fillColor=none;align=left;verticalAlign=middle;spacingTop=-1;spacingLeft=3;spacingRight=3;rotatable=0;labelPosition=right;points=[];portConstraint=eastwest;strokeColor=inherit;" vertex="1" parent="LJZgHr9To_zfwPelsCcP-37">
          <mxGeometry y="52" width="160" height="8" as="geometry" />
        </mxCell>
        <mxCell id="LJZgHr9To_zfwPelsCcP-40" value="MapParkingAccessPage" style="swimlane;fontStyle=1;align=center;verticalAlign=top;childLayout=stackLayout;horizontal=1;startSize=26;horizontalStack=0;resizeParent=1;resizeParentMax=0;resizeLast=0;collapsible=1;marginBottom=0;whiteSpace=wrap;html=1;" vertex="1" parent="1">
          <mxGeometry x="566" y="-462" width="160" height="60" as="geometry" />
        </mxCell>
        <mxCell id="LJZgHr9To_zfwPelsCcP-41" value="+ mapImage: Image" style="text;strokeColor=none;fillColor=none;align=left;verticalAlign=top;spacingLeft=4;spacingRight=4;overflow=hidden;rotatable=0;points=[[0,0.5],[1,0.5]];portConstraint=eastwest;whiteSpace=wrap;html=1;" vertex="1" parent="LJZgHr9To_zfwPelsCcP-40">
          <mxGeometry y="26" width="160" height="26" as="geometry" />
        </mxCell>
        <mxCell id="LJZgHr9To_zfwPelsCcP-42" value="" style="line;strokeWidth=1;fillColor=none;align=left;verticalAlign=middle;spacingTop=-1;spacingLeft=3;spacingRight=3;rotatable=0;labelPosition=right;points=[];portConstraint=eastwest;strokeColor=inherit;" vertex="1" parent="LJZgHr9To_zfwPelsCcP-40">
          <mxGeometry y="52" width="160" height="8" as="geometry" />
        </mxCell>
        <mxCell id="LJZgHr9To_zfwPelsCcP-43" value="MapGravelPage" style="swimlane;fontStyle=1;align=center;verticalAlign=top;childLayout=stackLayout;horizontal=1;startSize=26;horizontalStack=0;resizeParent=1;resizeParentMax=0;resizeLast=0;collapsible=1;marginBottom=0;whiteSpace=wrap;html=1;" vertex="1" parent="1">
          <mxGeometry x="566" y="-658" width="160" height="60" as="geometry" />
        </mxCell>
        <mxCell id="LJZgHr9To_zfwPelsCcP-44" value="+ mapImage: Image" style="text;strokeColor=none;fillColor=none;align=left;verticalAlign=top;spacingLeft=4;spacingRight=4;overflow=hidden;rotatable=0;points=[[0,0.5],[1,0.5]];portConstraint=eastwest;whiteSpace=wrap;html=1;" vertex="1" parent="LJZgHr9To_zfwPelsCcP-43">
          <mxGeometry y="26" width="160" height="26" as="geometry" />
        </mxCell>
        <mxCell id="LJZgHr9To_zfwPelsCcP-45" value="" style="line;strokeWidth=1;fillColor=none;align=left;verticalAlign=middle;spacingTop=-1;spacingLeft=3;spacingRight=3;rotatable=0;labelPosition=right;points=[];portConstraint=eastwest;strokeColor=inherit;" vertex="1" parent="LJZgHr9To_zfwPelsCcP-43">
          <mxGeometry y="52" width="160" height="8" as="geometry" />
        </mxCell>
        <mxCell id="LJZgHr9To_zfwPelsCcP-46" value="MapStarlinePage" style="swimlane;fontStyle=1;align=center;verticalAlign=top;childLayout=stackLayout;horizontal=1;startSize=26;horizontalStack=0;resizeParent=1;resizeParentMax=0;resizeLast=0;collapsible=1;marginBottom=0;whiteSpace=wrap;html=1;" vertex="1" parent="1">
          <mxGeometry x="566" y="-561" width="160" height="60" as="geometry" />
        </mxCell>
        <mxCell id="LJZgHr9To_zfwPelsCcP-47" value="+ mapImage: Image" style="text;strokeColor=none;fillColor=none;align=left;verticalAlign=top;spacingLeft=4;spacingRight=4;overflow=hidden;rotatable=0;points=[[0,0.5],[1,0.5]];portConstraint=eastwest;whiteSpace=wrap;html=1;" vertex="1" parent="LJZgHr9To_zfwPelsCcP-46">
          <mxGeometry y="26" width="160" height="26" as="geometry" />
        </mxCell>
        <mxCell id="LJZgHr9To_zfwPelsCcP-48" value="" style="line;strokeWidth=1;fillColor=none;align=left;verticalAlign=middle;spacingTop=-1;spacingLeft=3;spacingRight=3;rotatable=0;labelPosition=right;points=[];portConstraint=eastwest;strokeColor=inherit;" vertex="1" parent="LJZgHr9To_zfwPelsCcP-46">
          <mxGeometry y="52" width="160" height="8" as="geometry" />
        </mxCell>
        <mxCell id="LJZgHr9To_zfwPelsCcP-56" value="WaiverAdultPage" style="swimlane;fontStyle=1;align=center;verticalAlign=top;childLayout=stackLayout;horizontal=1;startSize=26;horizontalStack=0;resizeParent=1;resizeParentMax=0;resizeLast=0;collapsible=1;marginBottom=0;whiteSpace=wrap;html=1;" vertex="1" parent="1">
          <mxGeometry x="1150" y="-157" width="220" height="150" as="geometry" />
        </mxCell>
        <mxCell id="LJZgHr9To_zfwPelsCcP-57" value="+waiverTextField:TextField&lt;div&gt;+signatureField:SignatureField&lt;/div&gt;&lt;div&gt;+pageState:State&lt;/div&gt;" style="text;strokeColor=none;fillColor=none;align=left;verticalAlign=top;spacingLeft=4;spacingRight=4;overflow=hidden;rotatable=0;points=[[0,0.5],[1,0.5]];portConstraint=eastwest;whiteSpace=wrap;html=1;" vertex="1" parent="LJZgHr9To_zfwPelsCcP-56">
          <mxGeometry y="26" width="220" height="64" as="geometry" />
        </mxCell>
        <mxCell id="LJZgHr9To_zfwPelsCcP-58" value="" style="line;strokeWidth=1;fillColor=none;align=left;verticalAlign=middle;spacingTop=-1;spacingLeft=3;spacingRight=3;rotatable=0;labelPosition=right;points=[];portConstraint=eastwest;strokeColor=inherit;" vertex="1" parent="LJZgHr9To_zfwPelsCcP-56">
          <mxGeometry y="90" width="220" height="8" as="geometry" />
        </mxCell>
        <mxCell id="LJZgHr9To_zfwPelsCcP-59" value="+getState(page:Page):State&lt;div&gt;+passState(button:Button):State&lt;/div&gt;&lt;div&gt;+submitForm(Form):Form&lt;/div&gt;" style="text;strokeColor=none;fillColor=none;align=left;verticalAlign=top;spacingLeft=4;spacingRight=4;overflow=hidden;rotatable=0;points=[[0,0.5],[1,0.5]];portConstraint=eastwest;whiteSpace=wrap;html=1;" vertex="1" parent="LJZgHr9To_zfwPelsCcP-56">
          <mxGeometry y="98" width="220" height="52" as="geometry" />
        </mxCell>
        <mxCell id="LJZgHr9To_zfwPelsCcP-60" value="WaiverChildPage" style="swimlane;fontStyle=1;align=center;verticalAlign=top;childLayout=stackLayout;horizontal=1;startSize=26;horizontalStack=0;resizeParent=1;resizeParentMax=0;resizeLast=0;collapsible=1;marginBottom=0;whiteSpace=wrap;html=1;" vertex="1" parent="1">
          <mxGeometry x="1465" y="-492" width="220" height="150" as="geometry" />
        </mxCell>
        <mxCell id="LJZgHr9To_zfwPelsCcP-61" value="+waiverTextField:TextField&lt;div&gt;+signatureField:SignatureField&lt;/div&gt;&lt;div&gt;+pageState:State&lt;/div&gt;" style="text;strokeColor=none;fillColor=none;align=left;verticalAlign=top;spacingLeft=4;spacingRight=4;overflow=hidden;rotatable=0;points=[[0,0.5],[1,0.5]];portConstraint=eastwest;whiteSpace=wrap;html=1;" vertex="1" parent="LJZgHr9To_zfwPelsCcP-60">
          <mxGeometry y="26" width="220" height="64" as="geometry" />
        </mxCell>
        <mxCell id="LJZgHr9To_zfwPelsCcP-62" value="" style="line;strokeWidth=1;fillColor=none;align=left;verticalAlign=middle;spacingTop=-1;spacingLeft=3;spacingRight=3;rotatable=0;labelPosition=right;points=[];portConstraint=eastwest;strokeColor=inherit;" vertex="1" parent="LJZgHr9To_zfwPelsCcP-60">
          <mxGeometry y="90" width="220" height="8" as="geometry" />
        </mxCell>
        <mxCell id="LJZgHr9To_zfwPelsCcP-63" value="+getState(page:Page):State&lt;div&gt;+passState(button:Button):State&lt;/div&gt;&lt;div&gt;+submitForm(Form):Form&lt;/div&gt;" style="text;strokeColor=none;fillColor=none;align=left;verticalAlign=top;spacingLeft=4;spacingRight=4;overflow=hidden;rotatable=0;points=[[0,0.5],[1,0.5]];portConstraint=eastwest;whiteSpace=wrap;html=1;" vertex="1" parent="LJZgHr9To_zfwPelsCcP-60">
          <mxGeometry y="98" width="220" height="52" as="geometry" />
        </mxCell>
        <mxCell id="LJZgHr9To_zfwPelsCcP-65" style="edgeStyle=orthogonalEdgeStyle;rounded=0;orthogonalLoop=1;jettySize=auto;html=1;exitX=1;exitY=0.5;exitDx=0;exitDy=0;entryX=0;entryY=0.5;entryDx=0;entryDy=0;endArrow=none;startFill=0;" edge="1" parent="1" source="JsiSuxxwU8sM0iO7odkz-57" target="pYM4KknxGki9qGqo0QUS-123">
          <mxGeometry relative="1" as="geometry" />
        </mxCell>
        <mxCell id="LJZgHr9To_zfwPelsCcP-66" value="Opens" style="text;html=1;align=center;verticalAlign=middle;whiteSpace=wrap;rounded=0;" vertex="1" parent="1">
          <mxGeometry x="207" y="-1032" width="60" height="30" as="geometry" />
        </mxCell>
        <mxCell id="LJZgHr9To_zfwPelsCcP-67" value="" style="shape=mxgraph.arrows2.wedgeArrow;html=1;bendable=0;startWidth=7.586206896551726;fillColor=strokeColor;defaultFillColor=invert;defaultGradientColor=invert;rounded=0;" edge="1" parent="1">
          <mxGeometry width="100" height="100" relative="1" as="geometry">
            <mxPoint x="261" y="-1017" as="sourcePoint" />
            <mxPoint x="276" y="-1017" as="targetPoint" />
          </mxGeometry>
        </mxCell>
        <mxCell id="LJZgHr9To_zfwPelsCcP-68" value="Opens" style="text;html=1;align=center;verticalAlign=middle;whiteSpace=wrap;rounded=0;" vertex="1" parent="1">
          <mxGeometry x="311" y="-930" width="60" height="30" as="geometry" />
        </mxCell>
        <mxCell id="LJZgHr9To_zfwPelsCcP-69" value="" style="shape=mxgraph.arrows2.wedgeArrow;html=1;bendable=0;startWidth=7.586206896551726;fillColor=strokeColor;defaultFillColor=invert;defaultGradientColor=invert;rounded=0;" edge="1" parent="1">
          <mxGeometry width="100" height="100" relative="1" as="geometry">
            <mxPoint x="371" y="-915.28" as="sourcePoint" />
            <mxPoint x="386" y="-915.28" as="targetPoint" />
          </mxGeometry>
        </mxCell>
        <mxCell id="LJZgHr9To_zfwPelsCcP-70" style="edgeStyle=orthogonalEdgeStyle;rounded=0;orthogonalLoop=1;jettySize=auto;html=1;exitX=0;exitY=0.5;exitDx=0;exitDy=0;entryX=0.5;entryY=0;entryDx=0;entryDy=0;endArrow=none;startFill=0;" edge="1" parent="1" source="pYM4KknxGki9qGqo0QUS-125" target="pYM4KknxGki9qGqo0QUS-130">
          <mxGeometry relative="1" as="geometry" />
        </mxCell>
        <mxCell id="LJZgHr9To_zfwPelsCcP-71" style="edgeStyle=orthogonalEdgeStyle;rounded=0;orthogonalLoop=1;jettySize=auto;html=1;exitX=0.987;exitY=0.606;exitDx=0;exitDy=0;entryX=0.011;entryY=0.334;entryDx=0;entryDy=0;entryPerimeter=0;endArrow=none;startFill=0;exitPerimeter=0;" edge="1" parent="1" source="pYM4KknxGki9qGqo0QUS-123" target="pYM4KknxGki9qGqo0QUS-127">
          <mxGeometry relative="1" as="geometry">
            <mxPoint x="570" y="-995" as="sourcePoint" />
          </mxGeometry>
        </mxCell>
        <mxCell id="LJZgHr9To_zfwPelsCcP-72" value="Opens" style="text;html=1;align=center;verticalAlign=middle;whiteSpace=wrap;rounded=0;" vertex="1" parent="1">
          <mxGeometry x="814.5" y="-1030" width="60" height="30" as="geometry" />
        </mxCell>
        <mxCell id="LJZgHr9To_zfwPelsCcP-73" value="" style="shape=mxgraph.arrows2.wedgeArrow;html=1;bendable=0;startWidth=7.586206896551726;fillColor=strokeColor;defaultFillColor=invert;defaultGradientColor=invert;rounded=0;" edge="1" parent="1">
          <mxGeometry width="100" height="100" relative="1" as="geometry">
            <mxPoint x="874.5" y="-1015.28" as="sourcePoint" />
            <mxPoint x="889.5" y="-1015.28" as="targetPoint" />
          </mxGeometry>
        </mxCell>
        <mxCell id="LJZgHr9To_zfwPelsCcP-74" value="Events" style="text;html=1;align=center;verticalAlign=middle;whiteSpace=wrap;rounded=0;" vertex="1" parent="1">
          <mxGeometry x="251" y="-970" width="60" height="30" as="geometry" />
        </mxCell>
        <mxCell id="LJZgHr9To_zfwPelsCcP-77" value="Login" style="text;html=1;align=center;verticalAlign=middle;whiteSpace=wrap;rounded=0;" vertex="1" parent="1">
          <mxGeometry x="493" y="-975" width="60" height="30" as="geometry" />
        </mxCell>
        <mxCell id="LJZgHr9To_zfwPelsCcP-78" style="edgeStyle=orthogonalEdgeStyle;rounded=0;orthogonalLoop=1;jettySize=auto;html=1;exitX=0.999;exitY=0.85;exitDx=0;exitDy=0;endArrow=none;startFill=0;exitPerimeter=0;entryX=0.5;entryY=0;entryDx=0;entryDy=0;" edge="1" parent="1" source="pYM4KknxGki9qGqo0QUS-123" target="LJZgHr9To_zfwPelsCcP-10">
          <mxGeometry relative="1" as="geometry">
            <mxPoint x="498.48" y="-910" as="sourcePoint" />
            <mxPoint x="344" y="-682" as="targetPoint" />
            <Array as="points">
              <mxPoint x="491" y="-981" />
              <mxPoint x="491" y="-900" />
              <mxPoint x="639" y="-900" />
            </Array>
          </mxGeometry>
        </mxCell>
        <mxCell id="LJZgHr9To_zfwPelsCcP-79" value="Opens" style="text;html=1;align=center;verticalAlign=middle;whiteSpace=wrap;rounded=0;" vertex="1" parent="1">
          <mxGeometry x="509" y="-930" width="60" height="30" as="geometry" />
        </mxCell>
        <mxCell id="LJZgHr9To_zfwPelsCcP-81" value="Register" style="text;html=1;align=center;verticalAlign=middle;whiteSpace=wrap;rounded=0;" vertex="1" parent="1">
          <mxGeometry x="476" y="-1030" width="60" height="30" as="geometry" />
        </mxCell>
        <mxCell id="LJZgHr9To_zfwPelsCcP-83" value="" style="shape=mxgraph.arrows2.wedgeArrow;html=1;bendable=0;startWidth=7.586206896551726;fillColor=strokeColor;defaultFillColor=invert;defaultGradientColor=invert;rounded=0;" edge="1" parent="1">
          <mxGeometry width="100" height="100" relative="1" as="geometry">
            <mxPoint x="569.5" y="-915.28" as="sourcePoint" />
            <mxPoint x="584.5" y="-915.28" as="targetPoint" />
          </mxGeometry>
        </mxCell>
        <mxCell id="LJZgHr9To_zfwPelsCcP-85" style="edgeStyle=orthogonalEdgeStyle;rounded=0;orthogonalLoop=1;jettySize=auto;html=1;exitX=0;exitY=0.5;exitDx=0;exitDy=0;entryX=1;entryY=0.5;entryDx=0;entryDy=0;endArrow=none;startFill=0;" edge="1" parent="1" source="pYM4KknxGki9qGqo0QUS-131" target="LJZgHr9To_zfwPelsCcP-7">
          <mxGeometry relative="1" as="geometry">
            <Array as="points">
              <mxPoint x="311" y="-760" />
              <mxPoint x="240" y="-760" />
              <mxPoint x="240" y="-624" />
            </Array>
          </mxGeometry>
        </mxCell>
        <mxCell id="LJZgHr9To_zfwPelsCcP-86" style="edgeStyle=orthogonalEdgeStyle;rounded=0;orthogonalLoop=1;jettySize=auto;html=1;exitX=0;exitY=0.5;exitDx=0;exitDy=0;entryX=1.023;entryY=1.196;entryDx=0;entryDy=0;entryPerimeter=0;endArrow=none;startFill=0;" edge="1" parent="1" source="pYM4KknxGki9qGqo0QUS-131" target="pYM4KknxGki9qGqo0QUS-139">
          <mxGeometry relative="1" as="geometry">
            <Array as="points">
              <mxPoint x="311" y="-730" />
              <mxPoint x="260" y="-730" />
              <mxPoint x="260" y="-423" />
            </Array>
          </mxGeometry>
        </mxCell>
        <mxCell id="LJZgHr9To_zfwPelsCcP-88" style="edgeStyle=orthogonalEdgeStyle;rounded=0;orthogonalLoop=1;jettySize=auto;html=1;exitX=1;exitY=0.5;exitDx=0;exitDy=0;entryX=0.5;entryY=0;entryDx=0;entryDy=0;endArrow=none;startFill=0;" edge="1" parent="1" source="pYM4KknxGki9qGqo0QUS-131" target="LJZgHr9To_zfwPelsCcP-43">
          <mxGeometry relative="1" as="geometry">
            <Array as="points">
              <mxPoint x="471" y="-830" />
              <mxPoint x="544" y="-830" />
              <mxPoint x="544" y="-700" />
              <mxPoint x="646" y="-700" />
            </Array>
          </mxGeometry>
        </mxCell>
        <mxCell id="LJZgHr9To_zfwPelsCcP-90" style="edgeStyle=orthogonalEdgeStyle;rounded=0;orthogonalLoop=1;jettySize=auto;html=1;exitX=1;exitY=0.5;exitDx=0;exitDy=0;entryX=0.5;entryY=0;entryDx=0;entryDy=0;endArrow=none;startFill=0;" edge="1" parent="1" source="pYM4KknxGki9qGqo0QUS-131" target="LJZgHr9To_zfwPelsCcP-46">
          <mxGeometry relative="1" as="geometry">
            <Array as="points">
              <mxPoint x="471" y="-820" />
              <mxPoint x="534" y="-820" />
              <mxPoint x="534" y="-580" />
              <mxPoint x="646" y="-580" />
            </Array>
          </mxGeometry>
        </mxCell>
        <mxCell id="LJZgHr9To_zfwPelsCcP-91" style="edgeStyle=orthogonalEdgeStyle;rounded=0;orthogonalLoop=1;jettySize=auto;html=1;exitX=1;exitY=0.5;exitDx=0;exitDy=0;entryX=-0.01;entryY=-0.239;entryDx=0;entryDy=0;entryPerimeter=0;endArrow=none;startFill=0;" edge="1" parent="1" source="pYM4KknxGki9qGqo0QUS-131" target="LJZgHr9To_zfwPelsCcP-41">
          <mxGeometry relative="1" as="geometry">
            <Array as="points">
              <mxPoint x="471" y="-810" />
              <mxPoint x="524" y="-810" />
              <mxPoint x="524" y="-440" />
              <mxPoint x="564" y="-440" />
            </Array>
          </mxGeometry>
        </mxCell>
        <mxCell id="LJZgHr9To_zfwPelsCcP-92" style="edgeStyle=orthogonalEdgeStyle;rounded=0;orthogonalLoop=1;jettySize=auto;html=1;exitX=1;exitY=0.5;exitDx=0;exitDy=0;entryX=0.5;entryY=0;entryDx=0;entryDy=0;endArrow=none;startFill=0;" edge="1" parent="1" source="pYM4KknxGki9qGqo0QUS-131" target="LJZgHr9To_zfwPelsCcP-34">
          <mxGeometry relative="1" as="geometry">
            <Array as="points">
              <mxPoint x="471" y="-770" />
              <mxPoint x="494" y="-770" />
              <mxPoint x="494" y="-570" />
              <mxPoint x="402" y="-570" />
            </Array>
          </mxGeometry>
        </mxCell>
        <mxCell id="LJZgHr9To_zfwPelsCcP-93" style="edgeStyle=orthogonalEdgeStyle;rounded=0;orthogonalLoop=1;jettySize=auto;html=1;exitX=1;exitY=0.5;exitDx=0;exitDy=0;entryX=1;entryY=0.25;entryDx=0;entryDy=0;endArrow=none;startFill=0;" edge="1" parent="1" source="pYM4KknxGki9qGqo0QUS-131" target="LJZgHr9To_zfwPelsCcP-37">
          <mxGeometry relative="1" as="geometry">
            <Array as="points">
              <mxPoint x="471" y="-790" />
              <mxPoint x="504" y="-790" />
              <mxPoint x="504" y="-440" />
              <mxPoint x="482" y="-440" />
            </Array>
          </mxGeometry>
        </mxCell>
        <mxCell id="LJZgHr9To_zfwPelsCcP-95" value="Opens" style="text;html=1;align=center;verticalAlign=middle;whiteSpace=wrap;rounded=0;spacing=0;" vertex="1" parent="1">
          <mxGeometry x="354" y="-700" width="60" height="30" as="geometry" />
        </mxCell>
        <mxCell id="LJZgHr9To_zfwPelsCcP-96" value="" style="shape=mxgraph.arrows2.wedgeArrow;html=1;bendable=0;startWidth=7.586206896551726;fillColor=strokeColor;defaultFillColor=invert;defaultGradientColor=invert;rounded=0;" edge="1" parent="1">
          <mxGeometry width="100" height="100" relative="1" as="geometry">
            <mxPoint x="423" y="-687" as="sourcePoint" />
            <mxPoint x="423" y="-677" as="targetPoint" />
          </mxGeometry>
        </mxCell>
        <mxCell id="LJZgHr9To_zfwPelsCcP-98" value="Opens" style="text;html=1;align=center;verticalAlign=middle;whiteSpace=wrap;rounded=0;" vertex="1" parent="1">
          <mxGeometry x="219" y="-828" width="60" height="30" as="geometry" />
        </mxCell>
        <mxCell id="LJZgHr9To_zfwPelsCcP-99" style="edgeStyle=orthogonalEdgeStyle;rounded=0;orthogonalLoop=1;jettySize=auto;html=1;exitX=0;exitY=0.5;exitDx=0;exitDy=0;entryX=1.009;entryY=0.804;entryDx=0;entryDy=0;entryPerimeter=0;endArrow=none;startFill=0;" edge="1" parent="1" source="pYM4KknxGki9qGqo0QUS-131" target="pYM4KknxGki9qGqo0QUS-143">
          <mxGeometry relative="1" as="geometry">
            <mxPoint x="254.7199999999998" y="-801.8399999999999" as="targetPoint" />
          </mxGeometry>
        </mxCell>
        <mxCell id="LJZgHr9To_zfwPelsCcP-101" value="" style="shape=mxgraph.arrows2.wedgeArrow;html=1;bendable=0;startWidth=7.586206896551726;fillColor=strokeColor;defaultFillColor=invert;defaultGradientColor=invert;rounded=0;" edge="1" parent="1">
          <mxGeometry width="100" height="100" relative="1" as="geometry">
            <mxPoint x="251.32999999999998" y="-832" as="sourcePoint" />
            <mxPoint x="236.32999999999998" y="-832" as="targetPoint" />
          </mxGeometry>
        </mxCell>
        <mxCell id="LJZgHr9To_zfwPelsCcP-103" value="Opens" style="text;html=1;align=center;verticalAlign=middle;whiteSpace=wrap;rounded=0;rotation=270;" vertex="1" parent="1">
          <mxGeometry x="200" y="-705" width="60" height="30" as="geometry" />
        </mxCell>
        <mxCell id="LJZgHr9To_zfwPelsCcP-104" value="Opens" style="text;html=1;align=center;verticalAlign=middle;whiteSpace=wrap;rounded=0;rotation=270;" vertex="1" parent="1">
          <mxGeometry x="243" y="-595" width="60" height="30" as="geometry" />
        </mxCell>
        <mxCell id="LJZgHr9To_zfwPelsCcP-105" value="" style="shape=mxgraph.arrows2.wedgeArrow;html=1;bendable=0;startWidth=7.586206896551726;fillColor=strokeColor;defaultFillColor=invert;defaultGradientColor=invert;rounded=0;" edge="1" parent="1">
          <mxGeometry width="100" height="100" relative="1" as="geometry">
            <mxPoint x="228" y="-666" as="sourcePoint" />
            <mxPoint x="228" y="-656" as="targetPoint" />
          </mxGeometry>
        </mxCell>
        <mxCell id="LJZgHr9To_zfwPelsCcP-106" value="" style="shape=mxgraph.arrows2.wedgeArrow;html=1;bendable=0;startWidth=7.586206896551726;fillColor=strokeColor;defaultFillColor=invert;defaultGradientColor=invert;rounded=0;" edge="1" parent="1">
          <mxGeometry width="100" height="100" relative="1" as="geometry">
            <mxPoint x="273" y="-556" as="sourcePoint" />
            <mxPoint x="273" y="-546" as="targetPoint" />
          </mxGeometry>
        </mxCell>
        <mxCell id="LJZgHr9To_zfwPelsCcP-107" value="" style="shape=mxgraph.arrows2.wedgeArrow;html=1;bendable=0;startWidth=7.586206896551726;fillColor=strokeColor;defaultFillColor=invert;defaultGradientColor=invert;rounded=0;" edge="1" parent="1">
          <mxGeometry width="100" height="100" relative="1" as="geometry">
            <mxPoint x="493" y="-486" as="sourcePoint" />
            <mxPoint x="493" y="-476" as="targetPoint" />
          </mxGeometry>
        </mxCell>
        <mxCell id="LJZgHr9To_zfwPelsCcP-108" value="Opens" style="text;html=1;align=center;verticalAlign=middle;whiteSpace=wrap;rounded=0;rotation=270;" vertex="1" parent="1">
          <mxGeometry x="463" y="-531" width="60" height="30" as="geometry" />
        </mxCell>
        <mxCell id="LJZgHr9To_zfwPelsCcP-110" value="" style="shape=mxgraph.arrows2.wedgeArrow;html=1;bendable=0;startWidth=7.586206896551726;fillColor=strokeColor;defaultFillColor=invert;defaultGradientColor=invert;rounded=0;fontSize=9;strokeWidth=0;startSize=3;endSize=3;" edge="1" parent="1">
          <mxGeometry width="100" height="100" relative="1" as="geometry">
            <mxPoint x="427.33" y="-582" as="sourcePoint" />
            <mxPoint x="412.33" y="-582" as="targetPoint" />
          </mxGeometry>
        </mxCell>
        <mxCell id="LJZgHr9To_zfwPelsCcP-111" value="Opens" style="text;html=1;align=center;verticalAlign=middle;whiteSpace=wrap;rounded=0;spacing=0;" vertex="1" parent="1">
          <mxGeometry x="419" y="-597" width="60" height="30" as="geometry" />
        </mxCell>
        <mxCell id="LJZgHr9To_zfwPelsCcP-112" value="Opens" style="text;html=1;align=center;verticalAlign=middle;whiteSpace=wrap;rounded=0;spacing=0;" vertex="1" parent="1">
          <mxGeometry x="547" y="-587" width="60" height="30" as="geometry" />
        </mxCell>
        <mxCell id="LJZgHr9To_zfwPelsCcP-113" value="" style="shape=mxgraph.arrows2.wedgeArrow;html=1;bendable=0;startWidth=7.586206896551726;fillColor=strokeColor;defaultFillColor=invert;defaultGradientColor=invert;rounded=0;" edge="1" parent="1">
          <mxGeometry width="100" height="100" relative="1" as="geometry">
            <mxPoint x="608.5" y="-689.28" as="sourcePoint" />
            <mxPoint x="623.5" y="-689.28" as="targetPoint" />
          </mxGeometry>
        </mxCell>
        <mxCell id="LJZgHr9To_zfwPelsCcP-114" value="" style="shape=mxgraph.arrows2.wedgeArrow;html=1;bendable=0;startWidth=7.586206896551726;fillColor=strokeColor;defaultFillColor=invert;defaultGradientColor=invert;rounded=0;" edge="1" parent="1">
          <mxGeometry width="100" height="100" relative="1" as="geometry">
            <mxPoint x="601.5" y="-572.28" as="sourcePoint" />
            <mxPoint x="616.5" y="-572.28" as="targetPoint" />
          </mxGeometry>
        </mxCell>
        <mxCell id="LJZgHr9To_zfwPelsCcP-115" value="" style="shape=mxgraph.arrows2.wedgeArrow;html=1;bendable=0;startWidth=7.586206896551726;fillColor=strokeColor;defaultFillColor=invert;defaultGradientColor=invert;rounded=0;" edge="1" parent="1">
          <mxGeometry width="100" height="100" relative="1" as="geometry">
            <mxPoint x="536" y="-483" as="sourcePoint" />
            <mxPoint x="536" y="-473" as="targetPoint" />
          </mxGeometry>
        </mxCell>
        <mxCell id="LJZgHr9To_zfwPelsCcP-116" value="Opens" style="text;html=1;align=center;verticalAlign=middle;whiteSpace=wrap;rounded=0;rotation=270;" vertex="1" parent="1">
          <mxGeometry x="505" y="-523" width="60" height="30" as="geometry" />
        </mxCell>
        <mxCell id="LJZgHr9To_zfwPelsCcP-117" value="Opens" style="text;html=1;align=center;verticalAlign=middle;whiteSpace=wrap;rounded=0;spacing=0;" vertex="1" parent="1">
          <mxGeometry x="550" y="-703" width="60" height="30" as="geometry" />
        </mxCell>
        <mxCell id="LJZgHr9To_zfwPelsCcP-118" value="Map" style="text;html=1;align=center;verticalAlign=middle;whiteSpace=wrap;rounded=0;" vertex="1" parent="1">
          <mxGeometry x="474" y="-861" width="60" height="30" as="geometry" />
        </mxCell>
        <mxCell id="LJZgHr9To_zfwPelsCcP-119" value="schedule" style="text;html=1;align=center;verticalAlign=middle;whiteSpace=wrap;rounded=0;" vertex="1" parent="1">
          <mxGeometry x="257" y="-808" width="60" height="30" as="geometry" />
        </mxCell>
        <mxCell id="LJZgHr9To_zfwPelsCcP-120" value="localinfo&lt;span style=&quot;color: rgba(0, 0, 0, 0); font-family: monospace; font-size: 0px; text-align: start; text-wrap-mode: nowrap;&quot;&gt;%3CmxGraphModel%3E%3Croot%3E%3CmxCell%20id%3D%220%22%2F%3E%3CmxCell%20id%3D%221%22%20parent%3D%220%22%2F%3E%3CmxCell%20id%3D%222%22%20value%3D%22schedule%22%20style%3D%22text%3Bhtml%3D1%3Balign%3Dcenter%3BverticalAlign%3Dmiddle%3BwhiteSpace%3Dwrap%3Brounded%3D0%3B%22%20vertex%3D%221%22%20parent%3D%221%22%3E%3CmxGeometry%20x%3D%22257%22%20y%3D%22-808%22%20width%3D%2260%22%20height%3D%2230%22%20as%3D%22geometry%22%2F%3E%3C%2FmxCell%3E%3C%2Froot%3E%3C%2FmxGraphModel%3E&lt;/span&gt;" style="text;html=1;align=center;verticalAlign=middle;whiteSpace=wrap;rounded=0;" vertex="1" parent="1">
          <mxGeometry x="247" y="-765" width="60" height="30" as="geometry" />
        </mxCell>
        <mxCell id="LJZgHr9To_zfwPelsCcP-121" value="vendors" style="text;html=1;align=center;verticalAlign=middle;whiteSpace=wrap;rounded=0;" vertex="1" parent="1">
          <mxGeometry x="257" y="-731" width="60" height="30" as="geometry" />
        </mxCell>
        <mxCell id="LJZgHr9To_zfwPelsCcP-122" style="edgeStyle=orthogonalEdgeStyle;rounded=0;orthogonalLoop=1;jettySize=auto;html=1;exitX=0;exitY=0.5;exitDx=0;exitDy=0;entryX=0.471;entryY=-0.001;entryDx=0;entryDy=0;entryPerimeter=0;endArrow=none;startFill=0;" edge="1" parent="1" source="pYM4KknxGki9qGqo0QUS-127" target="LJZgHr9To_zfwPelsCcP-1">
          <mxGeometry relative="1" as="geometry">
            <Array as="points">
              <mxPoint x="1171" y="-960" />
              <mxPoint x="954" y="-960" />
            </Array>
          </mxGeometry>
        </mxCell>
        <mxCell id="LJZgHr9To_zfwPelsCcP-123" style="edgeStyle=orthogonalEdgeStyle;rounded=0;orthogonalLoop=1;jettySize=auto;html=1;exitX=0;exitY=0.5;exitDx=0;exitDy=0;entryX=0.5;entryY=0;entryDx=0;entryDy=0;endArrow=none;startFill=0;" edge="1" parent="1" source="pYM4KknxGki9qGqo0QUS-127" target="LJZgHr9To_zfwPelsCcP-18">
          <mxGeometry relative="1" as="geometry">
            <Array as="points">
              <mxPoint x="1171" y="-930" />
              <mxPoint x="1100" y="-930" />
              <mxPoint x="1100" y="-480" />
              <mxPoint x="960" y="-480" />
            </Array>
          </mxGeometry>
        </mxCell>
        <mxCell id="LJZgHr9To_zfwPelsCcP-124" style="edgeStyle=orthogonalEdgeStyle;rounded=0;orthogonalLoop=1;jettySize=auto;html=1;exitX=1;exitY=0.5;exitDx=0;exitDy=0;entryX=0.534;entryY=0.004;entryDx=0;entryDy=0;entryPerimeter=0;endArrow=none;startFill=0;" edge="1" parent="1" source="pYM4KknxGki9qGqo0QUS-126" target="LJZgHr9To_zfwPelsCcP-22">
          <mxGeometry relative="1" as="geometry" />
        </mxCell>
        <mxCell id="LJZgHr9To_zfwPelsCcP-127" style="edgeStyle=orthogonalEdgeStyle;rounded=0;orthogonalLoop=1;jettySize=auto;html=1;exitX=1;exitY=0.5;exitDx=0;exitDy=0;entryX=0.5;entryY=0;entryDx=0;entryDy=0;endArrow=none;startFill=0;" edge="1" parent="1" source="pYM4KknxGki9qGqo0QUS-127" target="LJZgHr9To_zfwPelsCcP-30">
          <mxGeometry relative="1" as="geometry">
            <Array as="points">
              <mxPoint x="1361" y="-930" />
              <mxPoint x="1420" y="-930" />
              <mxPoint x="1420" y="-300" />
              <mxPoint x="1575" y="-300" />
            </Array>
          </mxGeometry>
        </mxCell>
        <mxCell id="LJZgHr9To_zfwPelsCcP-128" style="edgeStyle=orthogonalEdgeStyle;rounded=0;orthogonalLoop=1;jettySize=auto;html=1;entryX=0.474;entryY=0.023;entryDx=0;entryDy=0;entryPerimeter=0;endArrow=none;startFill=0;" edge="1" parent="1" source="pYM4KknxGki9qGqo0QUS-129" target="LJZgHr9To_zfwPelsCcP-26">
          <mxGeometry relative="1" as="geometry">
            <Array as="points">
              <mxPoint x="1130" y="-876" />
              <mxPoint x="1130" y="-480" />
              <mxPoint x="1260" y="-480" />
            </Array>
          </mxGeometry>
        </mxCell>
        <mxCell id="LJZgHr9To_zfwPelsCcP-129" style="edgeStyle=orthogonalEdgeStyle;rounded=0;orthogonalLoop=1;jettySize=auto;html=1;exitX=1;exitY=0.5;exitDx=0;exitDy=0;entryX=0.5;entryY=0;entryDx=0;entryDy=0;endArrow=none;startFill=0;" edge="1" parent="1" source="pYM4KknxGki9qGqo0QUS-129" target="LJZgHr9To_zfwPelsCcP-14">
          <mxGeometry relative="1" as="geometry">
            <Array as="points">
              <mxPoint x="1400" y="-876" />
              <mxPoint x="1400" y="-825" />
              <mxPoint x="1266" y="-825" />
            </Array>
          </mxGeometry>
        </mxCell>
        <mxCell id="LJZgHr9To_zfwPelsCcP-130" style="edgeStyle=orthogonalEdgeStyle;rounded=0;orthogonalLoop=1;jettySize=auto;html=1;exitX=0;exitY=0.5;exitDx=0;exitDy=0;entryX=0.004;entryY=0.802;entryDx=0;entryDy=0;entryPerimeter=0;endArrow=none;startFill=0;" edge="1" parent="1" source="LJZgHr9To_zfwPelsCcP-2" target="LJZgHr9To_zfwPelsCcP-57">
          <mxGeometry relative="1" as="geometry">
            <Array as="points">
              <mxPoint x="790" y="-682" />
              <mxPoint x="790" y="-40" />
              <mxPoint x="1151" y="-40" />
            </Array>
          </mxGeometry>
        </mxCell>
        <mxCell id="LJZgHr9To_zfwPelsCcP-131" style="edgeStyle=orthogonalEdgeStyle;rounded=0;orthogonalLoop=1;jettySize=auto;html=1;exitX=1;exitY=0.5;exitDx=0;exitDy=0;entryX=0;entryY=0.5;entryDx=0;entryDy=0;endArrow=none;startFill=0;" edge="1" parent="1" source="LJZgHr9To_zfwPelsCcP-19" target="LJZgHr9To_zfwPelsCcP-57">
          <mxGeometry relative="1" as="geometry">
            <Array as="points">
              <mxPoint x="1090" y="-343" />
              <mxPoint x="1090" y="-99" />
            </Array>
          </mxGeometry>
        </mxCell>
        <mxCell id="LJZgHr9To_zfwPelsCcP-132" style="edgeStyle=orthogonalEdgeStyle;rounded=0;orthogonalLoop=1;jettySize=auto;html=1;exitX=1;exitY=0.5;exitDx=0;exitDy=0;entryX=0.994;entryY=0.351;entryDx=0;entryDy=0;entryPerimeter=0;endArrow=none;startFill=0;" edge="1" parent="1" source="LJZgHr9To_zfwPelsCcP-15" target="LJZgHr9To_zfwPelsCcP-57">
          <mxGeometry relative="1" as="geometry" />
        </mxCell>
        <mxCell id="LJZgHr9To_zfwPelsCcP-133" style="edgeStyle=orthogonalEdgeStyle;rounded=0;orthogonalLoop=1;jettySize=auto;html=1;exitX=0;exitY=0.5;exitDx=0;exitDy=0;entryX=0.5;entryY=0;entryDx=0;entryDy=0;endArrow=none;startFill=0;" edge="1" parent="1" source="LJZgHr9To_zfwPelsCcP-23" target="LJZgHr9To_zfwPelsCcP-60">
          <mxGeometry relative="1" as="geometry">
            <Array as="points">
              <mxPoint x="1445" y="-694" />
              <mxPoint x="1445" y="-522" />
              <mxPoint x="1575" y="-522" />
            </Array>
          </mxGeometry>
        </mxCell>
        <mxCell id="LJZgHr9To_zfwPelsCcP-135" style="edgeStyle=orthogonalEdgeStyle;rounded=0;orthogonalLoop=1;jettySize=auto;html=1;exitX=0;exitY=0.5;exitDx=0;exitDy=0;entryX=-0.01;entryY=0.173;entryDx=0;entryDy=0;entryPerimeter=0;endArrow=none;startFill=0;" edge="1" parent="1" source="LJZgHr9To_zfwPelsCcP-27" target="LJZgHr9To_zfwPelsCcP-57">
          <mxGeometry relative="1" as="geometry">
            <Array as="points">
              <mxPoint x="1120" y="-343" />
              <mxPoint x="1120" y="-120" />
            </Array>
          </mxGeometry>
        </mxCell>
        <mxCell id="LJZgHr9To_zfwPelsCcP-136" style="edgeStyle=orthogonalEdgeStyle;rounded=0;orthogonalLoop=1;jettySize=auto;html=1;exitX=0;exitY=0.5;exitDx=0;exitDy=0;entryX=1.006;entryY=0.785;entryDx=0;entryDy=0;entryPerimeter=0;endArrow=none;startFill=0;" edge="1" parent="1" target="LJZgHr9To_zfwPelsCcP-57">
          <mxGeometry relative="1" as="geometry">
            <mxPoint x="1465" y="-178.99999999999955" as="sourcePoint" />
          </mxGeometry>
        </mxCell>
        <mxCell id="LJZgHr9To_zfwPelsCcP-137" value="Opens" style="text;html=1;align=center;verticalAlign=middle;whiteSpace=wrap;rounded=0;" vertex="1" parent="1">
          <mxGeometry x="1440" y="-1000" width="60" height="30" as="geometry" />
        </mxCell>
        <mxCell id="LJZgHr9To_zfwPelsCcP-138" value="" style="shape=mxgraph.arrows2.wedgeArrow;html=1;bendable=0;startWidth=7.586206896551726;fillColor=strokeColor;defaultFillColor=invert;defaultGradientColor=invert;rounded=0;" edge="1" parent="1">
          <mxGeometry width="100" height="100" relative="1" as="geometry">
            <mxPoint x="1500" y="-985.28" as="sourcePoint" />
            <mxPoint x="1515" y="-985.28" as="targetPoint" />
          </mxGeometry>
        </mxCell>
        <mxCell id="LJZgHr9To_zfwPelsCcP-139" value="Opens" style="text;html=1;align=center;verticalAlign=middle;whiteSpace=wrap;rounded=0;" vertex="1" parent="1">
          <mxGeometry x="1020" y="-960" width="60" height="30" as="geometry" />
        </mxCell>
        <mxCell id="LJZgHr9To_zfwPelsCcP-140" value="" style="shape=mxgraph.arrows2.wedgeArrow;html=1;bendable=0;startWidth=7.586206896551726;fillColor=strokeColor;defaultFillColor=invert;defaultGradientColor=invert;rounded=0;" edge="1" parent="1">
          <mxGeometry width="100" height="100" relative="1" as="geometry">
            <mxPoint x="1025.33" y="-946" as="sourcePoint" />
            <mxPoint x="1010.3299999999999" y="-946" as="targetPoint" />
          </mxGeometry>
        </mxCell>
        <mxCell id="LJZgHr9To_zfwPelsCcP-141" value="Opens" style="text;html=1;align=center;verticalAlign=middle;whiteSpace=wrap;rounded=0;" vertex="1" parent="1">
          <mxGeometry x="1109" y="-956" width="60" height="30" as="geometry" />
        </mxCell>
        <mxCell id="LJZgHr9To_zfwPelsCcP-142" value="" style="shape=mxgraph.arrows2.wedgeArrow;html=1;bendable=0;startWidth=7.586206896551726;fillColor=strokeColor;defaultFillColor=invert;defaultGradientColor=invert;rounded=0;" edge="1" parent="1">
          <mxGeometry width="100" height="100" relative="1" as="geometry">
            <mxPoint x="1114.33" y="-942" as="sourcePoint" />
            <mxPoint x="1099.33" y="-942" as="targetPoint" />
          </mxGeometry>
        </mxCell>
        <mxCell id="LJZgHr9To_zfwPelsCcP-143" value="" style="shape=mxgraph.arrows2.wedgeArrow;html=1;bendable=0;startWidth=7.586206896551726;fillColor=strokeColor;defaultFillColor=invert;defaultGradientColor=invert;rounded=0;" edge="1" parent="1">
          <mxGeometry width="100" height="100" relative="1" as="geometry">
            <mxPoint x="801" y="-473" as="sourcePoint" />
            <mxPoint x="801" y="-463" as="targetPoint" />
          </mxGeometry>
        </mxCell>
        <mxCell id="LJZgHr9To_zfwPelsCcP-144" value="Opens" style="text;html=1;align=center;verticalAlign=middle;whiteSpace=wrap;rounded=0;rotation=270;" vertex="1" parent="1">
          <mxGeometry x="770" y="-513" width="60" height="30" as="geometry" />
        </mxCell>
        <mxCell id="LJZgHr9To_zfwPelsCcP-145" value="" style="shape=mxgraph.arrows2.wedgeArrow;html=1;bendable=0;startWidth=7.586206896551726;fillColor=strokeColor;defaultFillColor=invert;defaultGradientColor=invert;rounded=0;" edge="1" parent="1">
          <mxGeometry width="100" height="100" relative="1" as="geometry">
            <mxPoint x="1071" y="-134" as="sourcePoint" />
            <mxPoint x="1071" y="-124" as="targetPoint" />
          </mxGeometry>
        </mxCell>
        <mxCell id="LJZgHr9To_zfwPelsCcP-146" value="Opens" style="text;html=1;align=center;verticalAlign=middle;whiteSpace=wrap;rounded=0;rotation=270;" vertex="1" parent="1">
          <mxGeometry x="1040" y="-174" width="60" height="30" as="geometry" />
        </mxCell>
        <mxCell id="LJZgHr9To_zfwPelsCcP-147" value="" style="shape=mxgraph.arrows2.wedgeArrow;html=1;bendable=0;startWidth=7.586206896551726;fillColor=strokeColor;defaultFillColor=invert;defaultGradientColor=invert;rounded=0;" edge="1" parent="1">
          <mxGeometry width="100" height="100" relative="1" as="geometry">
            <mxPoint x="1132" y="-188" as="sourcePoint" />
            <mxPoint x="1132" y="-178" as="targetPoint" />
          </mxGeometry>
        </mxCell>
        <mxCell id="LJZgHr9To_zfwPelsCcP-148" value="Opens" style="text;html=1;align=center;verticalAlign=middle;whiteSpace=wrap;rounded=0;rotation=270;" vertex="1" parent="1">
          <mxGeometry x="1101" y="-228" width="60" height="30" as="geometry" />
        </mxCell>
        <mxCell id="LJZgHr9To_zfwPelsCcP-149" value="" style="shape=mxgraph.arrows2.wedgeArrow;html=1;bendable=0;startWidth=7.586206896551726;fillColor=strokeColor;defaultFillColor=invert;defaultGradientColor=invert;rounded=0;" edge="1" parent="1">
          <mxGeometry width="100" height="100" relative="1" as="geometry">
            <mxPoint x="1408" y="-263" as="sourcePoint" />
            <mxPoint x="1408" y="-253" as="targetPoint" />
          </mxGeometry>
        </mxCell>
        <mxCell id="LJZgHr9To_zfwPelsCcP-150" value="Opens" style="text;html=1;align=center;verticalAlign=middle;whiteSpace=wrap;rounded=0;rotation=270;" vertex="1" parent="1">
          <mxGeometry x="1377" y="-303" width="60" height="30" as="geometry" />
        </mxCell>
        <mxCell id="LJZgHr9To_zfwPelsCcP-151" value="" style="shape=mxgraph.arrows2.wedgeArrow;html=1;bendable=0;startWidth=7.586206896551726;fillColor=strokeColor;defaultFillColor=invert;defaultGradientColor=invert;rounded=0;" edge="1" parent="1">
          <mxGeometry width="100" height="100" relative="1" as="geometry">
            <mxPoint x="1432" y="-831" as="sourcePoint" />
            <mxPoint x="1432" y="-821" as="targetPoint" />
          </mxGeometry>
        </mxCell>
        <mxCell id="LJZgHr9To_zfwPelsCcP-152" value="Opens" style="text;html=1;align=center;verticalAlign=middle;whiteSpace=wrap;rounded=0;rotation=270;" vertex="1" parent="1">
          <mxGeometry x="1401" y="-871" width="60" height="30" as="geometry" />
        </mxCell>
        <mxCell id="LJZgHr9To_zfwPelsCcP-155" value="" style="shape=mxgraph.arrows2.wedgeArrow;html=1;bendable=0;startWidth=7.586206896551726;fillColor=strokeColor;defaultFillColor=invert;defaultGradientColor=invert;rounded=0;" edge="1" parent="1">
          <mxGeometry width="100" height="100" relative="1" as="geometry">
            <mxPoint x="1436" y="-580" as="sourcePoint" />
            <mxPoint x="1436" y="-570" as="targetPoint" />
          </mxGeometry>
        </mxCell>
        <mxCell id="LJZgHr9To_zfwPelsCcP-156" value="Opens" style="text;html=1;align=center;verticalAlign=middle;whiteSpace=wrap;rounded=0;rotation=270;" vertex="1" parent="1">
          <mxGeometry x="1405" y="-620" width="60" height="30" as="geometry" />
        </mxCell>
        <mxCell id="LJZgHr9To_zfwPelsCcP-158" value="Opens" style="text;html=1;align=center;verticalAlign=middle;whiteSpace=wrap;rounded=0;" vertex="1" parent="1">
          <mxGeometry x="1310" y="-850" width="60" height="30" as="geometry" />
        </mxCell>
        <mxCell id="LJZgHr9To_zfwPelsCcP-159" value="" style="shape=mxgraph.arrows2.wedgeArrow;html=1;bendable=0;startWidth=7.586206896551726;fillColor=strokeColor;defaultFillColor=invert;defaultGradientColor=invert;rounded=0;" edge="1" parent="1">
          <mxGeometry width="100" height="100" relative="1" as="geometry">
            <mxPoint x="1315.33" y="-836" as="sourcePoint" />
            <mxPoint x="1300.33" y="-836" as="targetPoint" />
          </mxGeometry>
        </mxCell>
        <mxCell id="LJZgHr9To_zfwPelsCcP-160" value="" style="shape=mxgraph.arrows2.wedgeArrow;html=1;bendable=0;startWidth=7.586206896551726;fillColor=strokeColor;defaultFillColor=invert;defaultGradientColor=invert;rounded=0;" edge="1" parent="1">
          <mxGeometry width="100" height="100" relative="1" as="geometry">
            <mxPoint x="1121" y="-680" as="sourcePoint" />
            <mxPoint x="1121" y="-670" as="targetPoint" />
          </mxGeometry>
        </mxCell>
        <mxCell id="LJZgHr9To_zfwPelsCcP-161" value="Opens" style="text;html=1;align=center;verticalAlign=middle;whiteSpace=wrap;rounded=0;rotation=270;" vertex="1" parent="1">
          <mxGeometry x="1090" y="-720" width="60" height="30" as="geometry" />
        </mxCell>
        <mxCell id="LJZgHr9To_zfwPelsCcP-162" value="Opens" style="text;html=1;align=center;verticalAlign=middle;whiteSpace=wrap;rounded=0;" vertex="1" parent="1">
          <mxGeometry x="1389.67" y="-80" width="60" height="30" as="geometry" />
        </mxCell>
        <mxCell id="LJZgHr9To_zfwPelsCcP-163" value="" style="shape=mxgraph.arrows2.wedgeArrow;html=1;bendable=0;startWidth=7.586206896551726;fillColor=strokeColor;defaultFillColor=invert;defaultGradientColor=invert;rounded=0;" edge="1" parent="1">
          <mxGeometry width="100" height="100" relative="1" as="geometry">
            <mxPoint x="1395" y="-66" as="sourcePoint" />
            <mxPoint x="1380" y="-66" as="targetPoint" />
          </mxGeometry>
        </mxCell>
      </root>
    </mxGraphModel>
  </diagram>
</mxfile>
